<?xml version="1.0" standalone="no"?>
<!DOCTYPE svg PUBLIC "-//W3C//DTD SVG 1.1//EN" "http://www.w3.org/Graphics/SVG/1.1/DTD/svg11.dtd" >
<svg xmlns="http://www.w3.org/2000/svg">
  <metadata>Created by iconfont</metadata>
  <defs>
  <font id="iconfont" horiz-adv-x="1024">
    <font-face
      font-family="iconfont"
      font-weight="400"
      font-stretch="normal"
      units-per-em="1024"
      ascent="896"
      descent="-128"
    />
      <missing-glyph />
      
      <glyph glyph-name="Gildata-zm-alertoverview" unicode="&#58903;" d="M96-64a32 32 0 0 0-5.76 63.488L96 0h32V256l0.256 14.4a384 384 0 0 0 767.488 0L896 256v-256h32a32 32 0 0 0 5.76-63.488L928-64H96z m416 640c-167.488 0-305.6-128.896-318.912-292.672l-0.832-14.08L192 256v-256h640V254.84799999999996l-0.192 13.184A320 320 0 0 1 512 576z m0 256a32 32 0 0 0 31.488-26.24L544 800v-64a32 32 0 0 0-63.488-5.76L480 736V800a32 32 0 0 0 32 32z m388.736-139.136a32 32 0 0 0 7.808-44.544l-36.672-52.48a32 32 0 1 0-52.48 36.736l36.736 52.48a32 32 0 0 0 44.608 7.808z m-777.472 0a32 32 0 0 1-7.808-44.544l36.672-52.48a32 32 0 1 1 52.48 36.736l-36.736 52.48a32 32 0 0 1-44.608 7.808zM407.488 353.856a32 32 0 0 0 38.72 3.904l4.928-3.712 127.68-118.208 119.616 117.504a32 32 0 0 0 40.832 3.328l4.416-3.712a32 32 0 0 0 3.328-40.832l-3.712-4.48-141.312-138.88a32 32 0 0 0-39.168-4.48l-4.992 3.84-128.384 118.72-126.08-118.592a32 32 0 0 0-40.96-2.368l-4.288 3.84a32 32 0 0 0-2.432 40.896l3.84 4.288L407.488 353.91999999999996z"  horiz-adv-x="1024" />
      
      <glyph glyph-name="Gildata-zm-alertquickfacts" unicode="&#58904;" d="M512 640a384 384 0 0 0 384-384v-256h32a32 32 0 1 0 0-64H96a32 32 0 1 0 0 64h32V256a384 384 0 0 0 384 384z m173.76-293.696l-4.416-3.712-104.896-104.96-101.696 104.64-4.352 3.84a32 32 0 0 1-36.352 0.512l-4.48-3.648-131.84-128-3.84-4.416a32 32 0 0 1-0.512-36.352l3.648-4.48 4.416-3.84a32 32 0 0 1 36.352-0.512l4.48 3.648L451.2 274.81600000000003l102.144-105.088 4.416-3.84a32 32 0 0 1 36.672-0.256l4.48 3.776 127.808 128 3.712 4.416a32 32 0 0 1-44.608 44.48z m214.976 346.56a32 32 0 0 0 7.808-44.544l-36.672-52.48a32 32 0 1 0-52.48 36.736l36.736 52.48a32 32 0 0 0 44.608 7.808z m-777.472 0a32 32 0 0 0 44.608-7.872l36.672-52.416a32 32 0 1 0-52.416-36.736l-36.672 52.48a32 32 0 0 0 7.808 44.544zM512 832a32 32 0 0 0 32-32v-64a32 32 0 0 0-64 0V800a32 32 0 0 0 32 32z"  horiz-adv-x="1024" />
      
      <glyph glyph-name="Gildata-zm-association" unicode="&#58905;" d="M512 832a448 448 0 1 0 0-896 448 448 0 0 0 0 896z m0-64a384 384 0 1 1 0-768 384 384 0 0 1 0 768zM597.312 640C620.928 640 640 620.928 640 597.312v-298.624A42.688 42.688 0 0 0 597.312 256H298.688A42.688 42.688 0 0 0 256 298.688V597.312C256 620.928 275.072 640 298.688 640h298.624zM576 576H320v-256h256V576zM725.312 512C748.928 512 768 492.928 768 469.312v-298.624A42.688 42.688 0 0 0 725.312 128H426.688A42.688 42.688 0 0 0 384 170.688V469.312C384 492.928 403.072 512 426.688 512h298.624zM704 448H448v-256h256V448z"  horiz-adv-x="1024" />
      
      <glyph glyph-name="Gildata-zm-announcement" unicode="&#58906;" d="M754.88 817.152l1.536-5.568L774.08 711.36l57.92-0.064a128 128 0 0 0 128-128V64a128 128 0 0 0-128-128H192A128 128 0 0 0 64 64V583.296a128 128 0 0 0 128 128h57.856l17.728 100.288a32 32 0 1 0 63.04-11.072L314.88 711.36h394.176l-15.68 89.152a32 32 0 0 0 20.352 35.52l5.632 1.536a32 32 0 0 0 35.52-20.416z m-74.496-230.464a64 64 0 0 1-90.496-2.048L445.568 433.6l-154.56-40.448a64 64 0 0 1-46.72-73.856l23.36-122.432a64 64 0 0 1 84.16-48.384l53.696 19.008 29.056-64.256a35.2 35.2 0 0 1 46.656-17.6l5.504 3.136a35.2 35.2 0 0 1 12.032 43.52l-26.56 58.688 21.44 7.488 206.464-53.76a64 64 0 0 1 80.128 61.888v74.112a511.552 511.552 0 0 1-65.28 249.984l-22.912 40.96a64 64 0 0 1-11.648 15.04z m-58.24-58.24c41.344 19.072 81.28-57.472 98.816-146.432 17.536-88.96 17.536-195.072-30.4-177.984l-193.664 48.32L392.64 208.32a64 64 0 0 0-87.744 46.976l-5.12 26.88a64 64 0 0 0 49.6 74.56l119.424 25.28c66.048 52.16 117.12 100.992 153.344 146.368z"  horiz-adv-x="1024" />
      
      <glyph glyph-name="Gildata-zm-bondannouncement" unicode="&#58907;" d="M754.88 817.152l1.536-5.568L774.08 711.36l57.92-0.064a128 128 0 0 0 128-128V64a128 128 0 0 0-128-128H192A128 128 0 0 0 64 64V583.296a128 128 0 0 0 128 128h57.856l17.728 100.288a32 32 0 1 0 63.04-11.072L314.88 711.36h394.176l-15.68 89.152a32 32 0 0 0 20.352 35.52l5.632 1.536a32 32 0 0 0 35.52-20.416zM832 647.296H192a64 64 0 0 1-63.552-56.576l-0.448-7.424V64a64 64 0 0 1 56.512-63.552L192 0h640a64 64 0 0 1 63.552 56.512L896 64V583.296a64 64 0 0 1-56.512 63.552l-7.488 0.448zM752.128 448a32 32 0 0 0 2.112-63.936L526.016 195.712a29.568 29.568 0 0 0-38.656 0.896 32.832 32.832 0 0 0-2.752 2.432l-3.712 4.416-55.808 79.616-106.176-74.432a32 32 0 0 0-36.672 52.48l131.008 91.712a31.872 31.872 0 0 0 15.744 5.696h2.048a32 32 0 0 0 25.152-9.152l3.712-4.416 53.76-76.672L653.632 384H608a32 32 0 0 0 0 64h144.128z"  horiz-adv-x="1024" />
      
      <glyph glyph-name="Gildata-zm-allintegrity" unicode="&#58908;" d="M512 832c118.656-89.408 252.672-134.08 382.848-134.08C909.696 232.64 782.08-21.312000000000012 512-64c-270.08 42.688-397.696 296.64-382.848 761.92C259.328 697.92 393.344 742.592 512 832z m0-78.272l-2.432-1.664c-96.832-63.744-203.136-102.656-310.976-114.368l-6.592-0.576v-13.44c0.256-373.568 103.424-573.44 303.872-619.392L512 1.024000000000001l2.944 0.448C724.096 41.66399999999999 831.744 241.98400000000004 832 623.6800000000001v13.44l-6.528 0.576c-107.84 11.712-214.144 50.56-311.04 114.368L512 753.7280000000001zM634.56 606.848l4.928-46.592 2.048-17.6h68.416a22.4 22.4 0 0 0 4.48-44.416l-4.48-0.448-62.976 0.064 2.88-22.528 5.44-38.272 2.752-18.112 5.568-34.112 2.88-16 0.32-1.856c7.68 22.784 14.848 48.256 21.312 76.352A22.4 22.4 0 0 0 710.4 460.8l4.48-0.576a22.4 22.4 0 0 0 16.832-26.88c-13.12-57.152-29.056-104.96-48.128-143.488l3.392-12.672c3.968-14.08 8.064-26.24 12.16-36.48l3.776-8.832 3.648 9.28a133.76 133.76 0 0 1 7.04 27.968l0.576 7.68a22.4 22.4 0 1 0 44.8 0c0-28.544-14.016-68.736-34.816-100.224a22.4 22.4 0 0 0-33.088-4.8c-14.08 11.84-26.88 34.112-38.592 67.2-19.2-25.152-40.832-43.2-65.088-54.016a22.4 22.4 0 1 0-18.304 40.896c24.704 11.072 47.104 34.24 66.944 69.76a995.84 995.84 0 0 0-4.096 17.216l-6.208 29.632-6.016 32.384-5.824 35.136-5.632 37.824-5.44 40.704-1.152 9.472H497.92l0.96-20.608c0.512-12.352 0.896-24.32 1.152-35.968l60.096 0.064a22.4 22.4 0 0 0 22.4-22.656l-1.216-68.48-0.64-21.376-1.472-26.24-1.152-14.08-1.536-11.456c-1.92-11.968-4.416-19.2-7.808-23.232a32.192 32.192 0 0 0-22.592-11.52 39.232 39.232 0 0 0-19.2 3.712l-6.848 3.712a22.4 22.4 0 0 0 10.944 40.896h3.264l2.048 61.76 1.024 44.224h-37.12c-0.96-105.152-14.656-176.448-42.24-215.552l-5.12-6.528a22.4 22.4 0 0 0-34.432 28.608c24.832 29.888 37.76 102.912 36.992 217.088l-0.64 37.376a1868.544 1868.544 0 0 1-0.768 19.712l-2.112 41.472a22.4 22.4 0 0 0 17.664 23.296l4.736 0.448 122.048 0.064-3.84 35.52-2.496 24.192a22.4 22.4 0 1 0 44.544 4.48zM352.64 468.352c10.816 0 19.84-7.68 21.952-17.92l0.448-4.48-0.064-169.472 11.264 13.76a22.4 22.4 0 0 0 27.136 6.016l4.352-2.816a22.4 22.4 0 0 0 6.016-27.136l-2.816-4.352-50.944-62.656a22.4 22.4 0 0 0-39.296 9.536l-0.448 4.608-0.064 210.176H284.8a22.4 22.4 0 0 0-21.952 17.856l-0.448 4.48c0 10.88 7.68 19.84 17.92 21.952l4.48 0.448h67.776z m-4.928 121.6l4.096-3.072 45.248-43.648a22.4 22.4 0 0 0-26.88-35.392l-4.16 3.2-45.312 43.52a22.4 22.4 0 0 0 27.008 35.456z m354.816 30.464c3.072-4.608 5.952-9.856 8.576-15.808a22.4 22.4 0 1 0-40.896-18.304 64.512 64.512 0 0 1-4.928 9.28 22.4 22.4 0 0 0 37.248 24.832z"  horiz-adv-x="1024" />
      
      <glyph glyph-name="Gildata-zm-bonddefaultwarning" unicode="&#58909;" d="M415.232 812.608l-224-130.688A192 192 0 0 1 96 516.1600000000001v-264.32a192 192 0 0 1 95.232-165.76l224-130.688a192 192 0 0 1 193.536 0l224 130.688A192 192 0 0 1 928 251.84000000000003V516.1600000000001a192 192 0 0 1-95.232 165.76l-224 130.688a192 192 0 0 1-193.536 0z m161.28-55.296l224-130.624A128 128 0 0 0 864 516.096v-264.192a128 128 0 0 0-63.488-110.592l-224-130.624a128 128 0 0 0-129.024 0l-224 130.624A128 128 0 0 0 160 251.904V516.096a128 128 0 0 0 63.488 110.592l224 130.624a128 128 0 0 0 129.024 0zM600.512 242.81600000000003V357.312h87.808c-1.088-24.64-2.688-40.128-5.376-47.104-4.288-9.6-15.488-14.976-33.152-15.488-9.088 0-19.84 1.024-32.64 2.624v-43.328c8.512-1.088 31.04-2.112 38.528-2.112 34.752 0.512 57.216 10.688 66.88 31.04 4.672 9.024 8.832 37.504 12.608 85.376a32 32 0 0 1-32.128 34.432H600.512V446.72h91.264a22.208 22.208 0 0 1 0 44.416h-91.264v42.816h104.64a22.72 22.72 0 1 1 0 45.44h-104.64V611.52a24.64 24.64 0 1 1-49.216 0v-32.064H451.52a22.72 22.72 0 0 1 0-45.504h99.84v-42.816h-79.552a22.208 22.208 0 0 1 0-44.416h79.424v-43.904h-104a22.72 22.72 0 0 1 0-45.44h104.064v-114.56a24.64 24.64 0 0 1 49.28 0zM389.184 538.24a24.768 24.768 0 0 1-0.64 35.712L335.36 623.36a25.92 25.92 0 0 1-35.52-0.192 23.488 23.488 0 0 1-0.128-33.92l52.8-51.2c10.24-9.92 26.56-9.792 36.672 0.256z m-62.592-389.248c22.848 34.048 37.312 51.072 43.328 51.072 6.4 0 12.8-4.288 19.84-13.44 16-18.112 34.176-30.976 55.616-37.376 21.952-5.376 49.728-8.576 83.968-9.152 33.728-0.512 65.28-1.024 94.208-1.024h84.544a50.304 50.304 0 0 1 50.304 50.304c-14.464-1.088-35.328-2.176-62.08-2.688-27.264-0.576-54.016-1.088-79.744-1.088a5797.12 5797.12 0 0 0-106.496 1.088c-30.976 1.088-54.016 5.888-69.504 13.376a122.944 122.944 0 0 0-38.016 32.064c-2.688 3.2-5.376 5.376-7.488 7.552V410.496a32 32 0 0 1-32 32h-64.32a23.552 23.552 0 0 1 0-47.04h48.64v-151.488c-11.968-5.952-30.912-26.112-56.832-60.416a28.672 28.672 0 0 1 3.392-38.272 21.632 21.632 0 0 1 32.64 3.776z"  horiz-adv-x="1024" />
      
      <glyph glyph-name="Gildata-zm-bondpricemovement" unicode="&#58910;" d="M429.056 689.344a96 96 0 0 0 165.888 0l336.576-576.96A96 96 0 0 0 848.576-32H175.424A96 96 0 0 0 92.48 112.38400000000001z m93.824-18.24a32 32 0 0 1-38.528-14.016L147.84 80.12800000000004A32 32 0 0 1 175.488 32H848.64a32 32 0 0 1 27.648 48.128L539.52 657.088a32 32 0 0 1-11.52 11.52zM512 160a32 32 0 1 0 0-64 32 32 0 0 0 0 64z m0 384a32 32 0 0 0 31.488-26.24L544 512v-288a32 32 0 0 0-63.488-5.76L480 224V512a32 32 0 0 0 32 32z"  horiz-adv-x="1024" />
      
      <glyph glyph-name="Gildata-zm-bonddefault" unicode="&#58911;" d="M832 832a128 128 0 0 0 128-128v-640a128 128 0 0 0-128-128H192A128 128 0 0 0 64 64V704A128 128 0 0 0 192 832h640z m0-64H192a64 64 0 0 1-63.552-56.512L128 704v-640a64 64 0 0 1 56.512-63.552L192 0h640a64 64 0 0 1 63.552 56.512L896 64V704a64 64 0 0 1-56.512 63.552L832 768zM611.84 216.96000000000004V348.86400000000003h104.576c-1.28-28.544-3.2-46.528-6.4-54.592-5.056-11.136-18.432-17.28-39.488-17.92-10.88 0-23.616 1.216-38.912 3.072v-50.24c10.24-1.28 36.992-2.496 45.888-2.496 41.472 0.64 68.288 12.416 79.744 35.968 10.24 19.2 16 65.728 17.92 138.88H611.84V452.48h109.44a25.728 25.728 0 0 1 0 51.456H611.84v49.6h125.44a26.368 26.368 0 0 1 0 52.736H611.84v36.416a29.312 29.312 0 1 1-58.688 0v-36.48h-119.68a26.368 26.368 0 0 1 0-52.672h119.68v-49.6H457.6a25.728 25.728 0 1 1 0-51.456h95.488v-50.88h-124.8a26.368 26.368 0 1 1 0-52.736h124.8v-131.84a29.312 29.312 0 0 1 58.688 0zM359.872 558.72a28.352 28.352 0 0 1-0.768 41.344l-63.36 57.216a31.36 31.36 0 0 1-42.432-0.256 26.88 26.88 0 0 1-0.128-39.296l62.976-59.392a31.616 31.616 0 0 1 43.712 0.384z m-74.56-451.072c27.264 39.36 44.48 59.072 51.584 59.072 7.68 0 15.36-4.992 23.616-15.552 19.136-21.056 40.832-35.968 66.304-43.392 26.24-6.208 59.328-9.92 100.16-10.56 40.192-0.64 77.824-1.216 112.256-1.216h102.464A58.24 58.24 0 0 1 800 154.24c-17.28-1.152-42.112-2.432-73.984-3.072-32.512-0.64-64.448-1.216-95.04-1.216-49.152 0-91.2 0.64-126.976 1.28-36.992 1.216-64.384 6.784-82.88 15.488a145.664 145.664 0 0 0-45.312 37.184c-3.2 3.712-6.4 6.208-8.96 8.704V447.68h-115.52a27.264 27.264 0 0 1 0-54.592h58.88v-175.552c-14.336-6.912-36.928-30.272-67.712-69.952a32.768 32.768 0 0 1 3.84-44.48 26.112 26.112 0 0 1 39.04 4.544z"  horiz-adv-x="1024" />
      
      <glyph glyph-name="Gildata-zm-bondwarning" unicode="&#58912;" d="M832 768a128 128 0 0 0 128-128v-192a64 64 0 0 1 0-128v-192a128 128 0 0 0-128-128H192A128 128 0 0 0 64 128V320a64 64 0 1 1 0 128V640a128 128 0 0 0 128 128h640z m-79.872-256H608a32 32 0 0 1 0-64h45.696L513.6 332.288l-53.76 76.672-3.648 4.48a32 32 0 0 1-25.152 9.088h-2.048a31.872 31.872 0 0 1-15.744-5.696L282.24 325.12a32 32 0 1 1 36.672-52.416l106.24 74.432 55.68-79.616 3.84-4.48a32.832 32.832 0 0 1 2.688-2.368 29.568 29.568 0 0 1 38.656-0.896L754.24 448a32 32 0 0 1-2.112 64z"  horiz-adv-x="1024" />
      
      <glyph glyph-name="Gildata-zm-combinedmonitoring" unicode="&#58913;" d="M896 768a64 64 0 0 0 64-64v-512a64 64 0 0 0-64-64H128a64 64 0 0 0-64 64V704a64 64 0 0 0 64 64h768zM598.4 667.008a38.4 38.4 0 0 1-49.536-22.144L435.2 348.79999999999995l-58.624 139.456-2.752 5.312a38.4 38.4 0 0 1-17.664 15.168l-5.952 1.92a38.4 38.4 0 0 1-44.416-22.336L259.84 379.648h-71.424l-5.76-0.576a32 32 0 0 1 5.76-63.488h92.608l5.44 0.512a32 32 0 0 1 24.064 19.008l30.592 72.384 59.84-142.272 2.88-5.568a38.4 38.4 0 0 1 47.424-14.976l5.504 2.88a38.4 38.4 0 0 1 15.488 18.816L587.84 567.9359999999999l118.144-234.688 3.2-5.12a32 32 0 0 1 25.408-12.544h93.824l5.76 0.512a32 32 0 0 1 26.24 31.488l-0.512 5.76a32 32 0 0 1-31.488 26.24l-74.112 0.064-135.296 268.8-2.944 4.8a38.4 38.4 0 0 1-17.6 13.76zM672 64a32 32 0 0 0 5.76-63.488L672 0H352a32 32 0 0 0-5.76 63.488L352 64h320z"  horiz-adv-x="1024" />
      
      <glyph glyph-name="Gildata-zm-cockpitoverview" unicode="&#58914;" d="M353.088 816.256a96 96 0 0 0 96-96v-289.088H160a96 96 0 0 0-96 96V720.256a96 96 0 0 0 96 96h193.088z m5.76-64.512l-5.76 0.512H160a32 32 0 0 1-31.488-26.24l-0.512-5.76v-193.088a32 32 0 0 1 26.24-31.488l5.76-0.512h225.088V720.256a32 32 0 0 1-20.8 29.952l-5.44 1.536zM353.088-64a96 96 0 0 1 96 96V321.08799999999997H160a96 96 0 0 1-96-96V32a96 96 0 0 1 96-96h193.088z m5.76 64.512l-5.76-0.512H160a32 32 0 0 0-31.488 26.24L128 32V225.08799999999997a32 32 0 0 0 26.24 31.488l5.76 0.512h225.088V32a32 32 0 0 0-20.8-30.016l-5.44-1.472zM547.2 691.5840000000001a96 96 0 0 1 0-135.808l136.576-136.512a96 96 0 0 1 135.808 0l136.512 136.512a96 96 0 0 1 0 135.808L819.584 828.096a96 96 0 0 1-135.808 0L547.264 691.5840000000001z m45.312-45.248l136.576 136.512a32 32 0 0 0 40.768 3.712l4.48-3.712L910.848 646.4a32 32 0 0 0 3.712-40.832l-3.712-4.48L774.4 464.576a32 32 0 0 0-40.832-3.712l-4.48 3.712-136.512 136.576a32 32 0 0 0-3.712 40.768l3.712 4.48zM655.168-64a96 96 0 0 0-96 96V321.08799999999997h289.088a96 96 0 0 0 96-96V32a96 96 0 0 0-96-96H655.168z m-5.76 64.512l5.76-0.512h193.088a32 32 0 0 1 31.488 26.24l0.512 5.76V225.08799999999997a32 32 0 0 1-26.24 31.488l-5.76 0.512H623.168V32a32 32 0 0 1 20.8-30.016l5.44-1.472z"  horiz-adv-x="1024" />
      
      <glyph glyph-name="Gildata-zm-companyevents3" unicode="&#58915;" d="M320 576q32 0 32-32t-32-32q-32 0-32 32t32 32zM444.416 576h263.168Q736 576 736 547.5840000000001v-7.168Q736 512 707.584 512H444.416Q416 512 416 540.4159999999999v7.168Q416 576 444.416 576zM320 416q32 0 32-32t-32-32q-32 0-32 32t32 32zM444.416 416h263.168Q736 416 736 387.584v-7.168Q736 352 707.584 352H444.416Q416 352 416 380.41600000000005v7.168Q416 416 444.416 416zM320 256q32 0 32-32t-32-32q-32 0-32 32t32 32zM444.416 256h263.168Q736 256 736 227.58399999999995v-7.168Q736 192 707.584 192H444.416Q416 192 416 220.41600000000005v7.168Q416 256 444.416 256zM832 832a128 128 0 0 0 128-128v-640a128 128 0 0 0-128-128H192A128 128 0 0 0 64 64V704A128 128 0 0 0 192 832h640z m0-64H192a64 64 0 0 1-63.552-56.512L128 704v-640a64 64 0 0 1 56.512-63.552L192 0h640a64 64 0 0 1 63.552 56.512L896 64V704a64 64 0 0 1-56.512 63.552L832 768z"  horiz-adv-x="1024" />
      
      <glyph glyph-name="Gildata-zm-blacklistfiltering" unicode="&#58916;" d="M494.208 416.128c-4.16 1.792-8.32 3.456-12.544 5.12A219.904 219.904 0 0 1 372.096 832a220.032 220.032 0 0 1-109.76-410.752 306.368 306.368 0 0 1-110.72-72.768A306.112 306.112 0 0 1 64 133.312v-148.48c0-26.88 21.888-48.768 48.768-48.768H472.64a27.968 27.968 0 1 1 0 56H120V133.312a250.496 250.496 0 0 0 258.56 251.904c32.448-0.768 63.872-7.68 93.44-20.544a27.968 27.968 0 1 1 22.208 51.456zM208 611.9680000000001c0 43.904 17.088 84.992 48.064 115.968A162.944 162.944 0 0 0 371.968 776c43.776 0 84.992-17.088 115.968-48 30.976-31.04 48-72.256 48-115.968 0-43.776-17.024-84.992-48-115.968a162.816 162.816 0 0 0-115.968-48 162.816 162.816 0 0 0-115.904 48 162.816 162.816 0 0 0-48 115.968zM736 384a224 224 0 1 1 0-448 224 224 0 0 1 0 448zM617.152 278.84799999999996A166.848 166.848 0 0 0 736 328c34.944 0 68.224-10.56 96.256-30.272L598.272 63.74400000000003A166.656 166.656 0 0 0 568 160c0 44.864 17.472 87.04 49.152 118.848zM854.848 41.27999999999997A166.848 166.848 0 0 0 736-7.9360000000000355c-35.84 0-70.016 11.2-98.432 31.872l234.56 234.56C892.8 230.08000000000004 904 195.96799999999996 904 160.06399999999996c0-44.928-17.472-87.104-49.152-118.784z"  horiz-adv-x="1024" />
      
      <glyph glyph-name="Gildata-zm-bondpublicopinion" unicode="&#58917;" d="M832 832a128 128 0 0 0 128-128v-519.296a128 128 0 0 0-128-128h-87.488l-47.424-128-175.424 128H192a128 128 0 0 0-128 128V704A128 128 0 0 0 192 832h640z m0-64H192a64 64 0 0 1-63.552-56.512L128 704v-519.296a64 64 0 0 1 56.512-63.552l7.488-0.448h350.528l123.904-90.368 33.536 90.368H832a64 64 0 0 1 63.552 56.576l0.448 7.424V704a64 64 0 0 1-56.512 63.552L832 768zM752.128 576a32 32 0 0 0 2.112-63.936L526.016 323.712a29.568 29.568 0 0 0-38.656 0.896 32.832 32.832 0 0 0-2.752 2.432l-3.712 4.416-55.808 79.616-106.176-74.432a32 32 0 1 0-36.672 52.48l131.008 91.712a31.872 31.872 0 0 0 15.744 5.696h2.048a32 32 0 0 0 25.152-9.152l3.712-4.416 53.76-76.672L653.632 512H608a32 32 0 0 0 0 64h144.128z"  horiz-adv-x="1024" />
      
      <glyph glyph-name="Gildata-zm-companyfinance" unicode="&#58918;" d="M512 832a448 448 0 1 0 0-896 448 448 0 0 0 0 896z m0-64a384 384 0 1 1 0-768 384 384 0 0 1 0 768zM512 704a320 320 0 1 0 0-640 320 320 0 0 0 0 640z m0-58.24a261.76 261.76 0 1 1 0-523.52 261.76 261.76 0 0 1 0 523.52zM384 416a32 32 0 0 0-5.76 63.488L384 480h50.048l-40.832 41.6a32 32 0 0 0 41.216 48.576l4.352-3.712L512 492.032l73.216 74.432a32 32 0 0 0 49.28-40.448l-3.712-4.48L589.888 480H640a32 32 0 0 0 5.76-63.488L640 416h-96v-64h64a32 32 0 0 0 5.76-63.488L608 288h-64v-64a32 32 0 0 0-63.488-5.76L480 224v64h-64a32 32 0 0 0-5.76 63.488L416 352h64v64h-96z"  horiz-adv-x="1024" />
      
      <glyph glyph-name="Gildata-zm-companyfinance2" unicode="&#58919;" d="M864 640a96 96 0 0 0 96-96v-512a96 96 0 0 0-96-96H160a96 96 0 0 0-96 96V640h800zM128 32a32 32 0 0 1 26.24-31.488L160 0h704a32 32 0 0 1 31.488 26.24L896 32V544a32 32 0 0 1-26.24 31.488L864 576H128v-544zM576 288a96 96 0 1 1 192 0 96 96 0 1 1-192 0zM736 832a96 96 0 0 0 96-96v-160H64V736a96 96 0 0 0 96 96h576z m0-64H160a32 32 0 0 1-31.488-26.24L128 736v-96h640v96a32 32 0 0 1-26.24 31.488L736 768z"  horiz-adv-x="1024" />
      
      <glyph glyph-name="Gildata-zm-cashflowhealthmodel" unicode="&#58920;" d="M512 832c118.656-89.408 252.672-134.08 382.848-134.08C909.696 232.64 782.08-21.312000000000012 512-64c-270.08 42.688-397.696 296.64-382.848 761.92C259.328 697.92 393.344 742.592 512 832z m0-78.272l-2.432-1.664c-96.832-63.744-203.136-102.656-310.976-114.368l-6.592-0.576v-13.44c0.256-373.568 103.424-573.44 303.872-619.392L512 1.024000000000001l2.944 0.448C724.096 41.66399999999999 831.744 241.98400000000004 832 623.6800000000001v13.44l-6.528 0.576c-107.84 11.712-214.144 50.56-311.04 114.368L512 753.7280000000001zM384 416a32 32 0 0 0-5.76 63.488L384 480h50.048l-40.832 41.6a32 32 0 0 0 41.216 48.576l4.352-3.712L512 492.032l73.216 74.432a32 32 0 0 0 49.28-40.448l-3.712-4.48L589.888 480H640a32 32 0 0 0 5.76-63.488L640 416h-96v-64h64a32 32 0 0 0 5.76-63.488L608 288h-64v-64a32 32 0 0 0-63.488-5.76L480 224v64h-64a32 32 0 0 0-5.76 63.488L416 352h64v64h-96z"  horiz-adv-x="1024" />
      
      <glyph glyph-name="Gildata-zm-cityinvestmentoverview" unicode="&#58921;" d="M362.24 182.27200000000005l5.76-0.512a32 32 0 0 0 25.728-25.728l0.512-5.76-0.512-5.76A32 32 0 0 0 368 118.78399999999999l-5.76-0.512-93.44 0.128 243.392-120.896 245.568 120.96-92.48-0.128a32 32 0 0 0-31.488 26.24l-0.512 5.76a32 32 0 0 0 26.24 31.488l5.76 0.512h216.576a32 32 0 0 0 31.36-38.208l-29.44-148.864a32 32 0 0 0-62.848 12.416l15.36 77.952-309.824-152.448a32 32 0 0 0-9.28-2.944l-4.864-0.32a33.28 33.28 0 0 0-10.048 1.472l-4.544 1.856-306.624 152.32 15.36-77.888a32 32 0 0 0-19.584-35.968l-5.568-1.6a32 32 0 0 0-35.968 19.648l-1.664 5.504-29.44 148.864a32 32 0 0 0 25.984 37.76l5.376 0.448h216.64zM512 832c141.44 0 256-111.424 256-248.896 0-51.072-21.504-112.896-64.576-185.472l238.208-114.24a32 32 0 0 0-22.272-59.712l-5.44 1.984L668.608 343.36C628.48 285.05600000000004 576.32 220.67200000000003 512 150.27200000000005c-64.64 71.808-117.12 137.088-157.248 195.84L111.168 225.91999999999996a32 32 0 0 0-33.28 54.4l4.928 3.008 237.248 117.184C277.376 472.64 256 533.568 256 583.104 256 720.64 370.56 832 512 832z m0-64c-106.432 0-192-83.2-192-184.896 0-67.52 58.624-176 177.728-318.784l14.528-17.28 14.272 16.64C640.768 399.232 699.2 504.64 703.744 574.528l0.256 8.576C704 684.864 618.432 768 512 768z m0-64a128 128 0 1 0 0-256 128 128 0 0 0 0 256z m0-64a64 64 0 1 1 0-128 64 64 0 0 1 0 128z"  horiz-adv-x="1024" />
      
      <glyph glyph-name="Gildata-zm-companyprofile" unicode="&#58922;" d="M269.184 501.248l28.224-57.472C191.424 391.744 128 308.096 128 206.784c0-148.288 46.08-203.008 135.552-206.592l9.792-0.192h605.824v-64H273.344C140.992-64 64 18.81600000000003 64 206.72000000000003c0 128.32 78.976 232.512 205.184 294.528z m460.288-60.416l23.36 59.52 7.936-3.52 38.656-18.88A287.808 287.808 0 0 0 959.68 233.91999999999996l0.32-14.272V64H312.128v64H896v91.648a223.808 223.808 0 0 1-113.024 194.624l-11.84 6.336-41.6 20.224zM812.608 23.744000000000028a16 16 0 0 0 17.792 7.808l3.968-1.536 78.976-43.776a16 16 0 0 0 4.352-24.512l-3.2-2.88-79.04-52.224a16 16 0 0 0-20.864 23.872l3.2 2.88 56.96 37.696-55.872 30.912a16 16 0 0 0-7.808 17.792l1.536 3.968zM450.304 608c25.984 0 47.104-21.12 47.104-47.104v-0.384a47.104 47.104 0 1 0-94.208 0v0.384c0 25.984 21.12 47.104 47.104 47.104z m0-139.392c25.984 0 47.104-21.12 47.104-47.104v-0.384a47.104 47.104 0 0 0-94.208 0v0.384c0 25.984 21.12 47.104 47.104 47.104z m0-139.392c25.984 0 47.104-21.12 47.104-47.104v-0.512a47.104 47.104 0 1 0-94.208 0v0.448c0 25.984 21.12 47.104 47.104 47.104zM580.736 608c26.048 0 47.104-21.12 47.104-47.104v-0.512a47.104 47.104 0 1 0-94.208 0v0.512c0 25.984 21.12 47.104 47.104 47.104z m0-139.392c26.048 0 47.104-21.12 47.104-47.104v-0.512a47.104 47.104 0 1 0-94.208 0v0.512c0 25.984 21.12 47.104 47.104 47.104z m0-139.392c26.048 0 47.104-21.12 47.104-47.104v-0.512a47.104 47.104 0 0 0-94.208 0v0.512c0 25.984 21.12 47.104 47.104 47.104zM512 832c85.312 0 170.688-38.016 256-113.92V64H256V718.08C341.312 793.92 426.688 832 512 832z m0-64c-59.136 0-120.192-23.68-183.872-73.088L320 688.448V128h384V688.384l-8.128 6.528c-58.752 45.632-115.328 69.312-170.24 72.64L512 768z"  horiz-adv-x="1024" />
      
      <glyph glyph-name="Gildata-zm-companyevents" unicode="&#58923;" d="M320 576q32 0 32-32t-32-32q-32 0-32 32t32 32zM444.416 576h263.168Q736 576 736 547.5840000000001v-7.168Q736 512 707.584 512H444.416Q416 512 416 540.4159999999999v7.168Q416 576 444.416 576zM320 416q32 0 32-32t-32-32q-32 0-32 32t32 32zM444.416 416h263.168Q736 416 736 387.584v-7.168Q736 352 707.584 352H444.416Q416 352 416 380.41600000000005v7.168Q416 416 444.416 416zM320 256q32 0 32-32t-32-32q-32 0-32 32t32 32zM444.416 256h263.168Q736 256 736 227.58399999999995v-7.168Q736 192 707.584 192H444.416Q416 192 416 220.41600000000005v7.168Q416 256 444.416 256zM512 832a448 448 0 1 0 0-896 448 448 0 0 0 0 896z m0-64a384 384 0 1 1 0-768 384 384 0 0 1 0 768z"  horiz-adv-x="1024" />
      
      <glyph glyph-name="Gildata-zm-casefilinginformation" unicode="&#58924;" d="M512 832a256 256 0 0 0 123.904-480c2.688-10.24 4.096-20.928 4.096-32l-0.064-51.52h148.48c64 0 120.576-41.6 139.584-102.656a79.104 79.104 0 0 0-75.52-102.72H171.52A79.104 79.104 0 0 0 96 165.82399999999996 146.176 146.176 0 0 0 235.52 268.48H384V320c0 11.072 1.408 21.76 4.032 32.064A256 256 0 0 0 512 832z m0-64a192 192 0 0 1-104.064-353.28l11.072-6.656 43.392-24-12.352-48-1.536-7.872-0.512-8.32-0.128-115.392H235.52c-35.904 0-67.712-23.36-78.4-57.728a15.104 15.104 0 0 1 10.432-19.072l3.968-0.576h680.96a15.104 15.104 0 0 1 14.4 19.648 82.176 82.176 0 0 1-70.208 57.344l-8.256 0.384H575.872L576 320a63.68 63.68 0 0 1-0.896 10.688l-1.088 4.992-12.608 48.128 43.52 24.128A192 192 0 0 1 512 768z m416-832H96a32 32 0 1 0 0 64h832a32 32 0 1 0 0-64z"  horiz-adv-x="1024" />
      
      <glyph glyph-name="Gildata-zm-bondratingdowngrade" unicode="&#58925;" d="M96 832a32 32 0 0 0 31.488-26.24L128 800v-704a96 96 0 0 1 86.784-95.552L224 0h704a32 32 0 0 0 5.76-63.488L928-64H224A160 160 0 0 0 64.32 85.50400000000002L64 96V800a32 32 0 0 0 32 32zM202.624 549.76a32 32 0 0 0 40.96 2.752l4.288-3.84 130.56-136.704 136.32 137.152a32 32 0 0 0 41.088 3.648l4.48-3.776L736 369.6a32.128 32.128 0 0 0 4.16-5.12l82.88 77.376a32 32 0 0 0 53.76-22.144l8.832-220.352a32 32 0 0 0-35.456-33.088L630.912 190.39999999999998a32 32 0 0 0-18.304 55.232l81.472 75.904-3.84 3.264-153.024 156.224-136.512-137.472a32 32 0 0 0-41.408-3.456l-4.48 3.84L201.6 504.576a32 32 0 0 0 1.024 45.248zM815.68 347.52L707.264 246.39999999999998l112.96-12.48-4.544 113.536z"  horiz-adv-x="1024" />
      
      <glyph glyph-name="Gildata-zm-companyevents2" unicode="&#58926;" d="M569.792 758.208A64 64 0 0 0 576 730.752V0a64 64 0 0 0-64-64H128a64 64 0 0 0-64 64V548.48a64 64 0 0 0 36.544 57.856l384 182.272a64 64 0 0 0 85.248-30.4zM512 0V730.752L128 548.48V0h384zM416 448a32 32 0 0 0 5.76-63.488L416 384H224a32 32 0 0 0-5.76 63.488L224 448h192z m0-192a32 32 0 0 0 5.76-63.488L416 192H224a32 32 0 0 0-5.76 63.488L224 256h192z m237.056 485.76A64 64 0 0 1 640 703.04V0a64 64 0 0 1 64-64h192a64 64 0 0 1 64 64V557.184a64 64 0 0 1-25.28 51.008l-192 145.792a64 64 0 0 1-89.664-12.224zM704 703.04l192-145.856V0H704V703.04z"  horiz-adv-x="1024" />
      
      <glyph glyph-name="Gildata-zm-companyfinance3" unicode="&#58927;" d="M832 832a128 128 0 0 0 128-128v-640a128 128 0 0 0-128-128H192A128 128 0 0 0 64 64V704A128 128 0 0 0 192 832h640z m0-64H192a64 64 0 0 1-63.552-56.512L128 704v-640a64 64 0 0 1 56.512-63.552L192 0h640a64 64 0 0 1 63.552 56.512L896 64V704a64 64 0 0 1-56.512 63.552L832 768zM384 416a32 32 0 0 0-5.76 63.488L384 480h50.048l-40.832 41.6a32 32 0 0 0 41.216 48.576l4.352-3.712L512 492.032l73.216 74.432a32 32 0 0 0 49.28-40.448l-3.712-4.48L589.888 480H640a32 32 0 0 0 5.76-63.488L640 416h-96v-64h64a32 32 0 0 0 5.76-63.488L608 288h-64v-64a32 32 0 0 0-63.488-5.76L480 224v64h-64a32 32 0 0 0-5.76 63.488L416 352h64v64h-96zM768 736a96 96 0 0 0 96-96v-512a96 96 0 0 0-96-96H256a96 96 0 0 0-96 96V640a96 96 0 0 0 96 96h512z m0-64H256a32 32 0 0 1-31.488-26.24L224 640v-512a32 32 0 0 1 26.24-31.488L256 96h512a32 32 0 0 1 31.488 26.24L800 128V640a32 32 0 0 1-26.24 31.488L768 672z"  horiz-adv-x="1024" />
      
      <glyph glyph-name="Gildata-zm-companyannouncement" unicode="&#58928;" d="M754.88 817.152l1.536-5.568L774.08 711.36l57.92-0.064a128 128 0 0 0 128-128V64a128 128 0 0 0-128-128H192A128 128 0 0 0 64 64V583.296a128 128 0 0 0 128 128h57.856l17.728 100.288a32 32 0 1 0 63.04-11.072L314.88 711.36h394.176l-15.68 89.152a32 32 0 0 0 20.352 35.52l5.632 1.536a32 32 0 0 0 35.52-20.416zM832 647.296H192a64 64 0 0 1-63.552-56.576l-0.448-7.424V64a64 64 0 0 1 56.512-63.552L192 0V480.96c75.84 75.904 151.68 113.792 227.584 113.792 75.84 0 151.68-37.888 227.52-113.792v-320.448A227.328 227.328 0 0 0 829.12 0H832a64 64 0 0 1 63.552 56.512L896 64V583.296a64 64 0 0 1-56.512 63.552l-7.488 0.448z m-412.416-116.48c-49.408 0-101.504-22.784-156.672-71.04L256 453.568V0.32000000000005h327.104V453.504l-6.912 6.272c-50.944 44.544-99.2 67.328-145.216 70.592l-11.392 0.384z m227.52-435.52v-94.976h113.92l-2.304 5.376a163.52 163.52 0 0 1-105.792 88.192l-5.824 1.408zM484.864 257.91999999999996c25.984 0 47.104-21.056 47.104-47.104v-0.512a47.104 47.104 0 1 0-94.208 0v0.512c0 26.048 21.12 47.104 47.104 47.104z m-130.432 0c25.984 0 47.104-21.056 47.104-47.104v-0.384a47.104 47.104 0 1 0-94.208 0v0.384c0 26.048 21.12 47.104 47.104 47.104z m130.432 139.52c25.984 0 47.104-21.12 47.104-47.104v-0.512a47.104 47.104 0 1 0-94.208 0v0.512c0 25.984 21.12 47.104 47.104 47.104z m-130.432 0c25.984 0 47.104-21.12 47.104-47.104v-0.448a47.104 47.104 0 0 0-94.208 0v0.448c0 25.984 21.12 47.104 47.104 47.104z"  horiz-adv-x="1024" />
      
      <glyph glyph-name="Gildata-zm-courtannouncement" unicode="&#58929;" d="M768 832a128 128 0 0 0 128-128v-640a128 128 0 0 0-128-128H256a128 128 0 0 0-128 128V704A128 128 0 0 0 256 832h512z m0-64H256a64 64 0 0 1-63.552-56.512L192 704v-640a64 64 0 0 1 56.512-63.552L256 0h512a64 64 0 0 1 63.552 56.512L832 64V704a64 64 0 0 1-56.512 63.552L768 768zM736 640h-64a32 32 0 1 0 0 64h64a32 32 0 1 0 0-64z m0-192h-64a32 32 0 1 0 0 64h64a32 32 0 1 0 0-64z m0-192H288a32 32 0 0 0 0 64h448a32 32 0 1 0 0-64z m0-128H288a32 32 0 1 0 0 64h448a32 32 0 1 0 0-64zM430.144 724.4159999999999a32 32 0 0 0 14.528-14.528l27.776-56.192 62.016-9.024a32 32 0 0 0 17.728-54.592l-44.864-43.776 10.56-61.76a32 32 0 0 0-46.4-33.728L416 480l-55.488-29.184a32 32 0 0 0-46.4 33.728l10.56 61.76-44.8 43.776a32 32 0 0 0 17.664 54.592l62.08 8.96 27.712 56.256a32 32 0 0 0 42.88 14.528z m-4.928-116.032a21.76 21.76 0 0 1-29.056-10.496l-4.608-1.28a23.04 23.04 0 0 1-8.32-37.504l0.704-0.768-0.256-1.792a21.888 21.888 0 0 1 32.256-22.656 21.888 21.888 0 0 1 32.256 22.656l-0.32 1.792 0.768 0.768a23.04 23.04 0 0 1-12.928 38.784l-2.688 4.288a21.76 21.76 0 0 1-7.808 6.208z"  horiz-adv-x="1024" />
      
      <glyph glyph-name="Gildata-zm-costandexpensefinancialabnormality" unicode="&#58930;" d="M725.44 822.4639999999999c4.736-9.792 3.2-21.12-3.52-29.312l-3.84-3.84-161.216-133.056 10.944-2.304c170.752-40.512 319.68-267.648 333.568-466.496l0.768-15.232 0.256-14.4c0-163.648-93.44-218.88-296.32-227.008l-34.816-0.96-23.808-0.192H476.48l-17.92 0.192-34.304 0.896a1268.16 1268.16 0 0 0-16.384 0.64l-31.36 2.048C199.296-52.28800000000001 121.6 4.7999999999999545 121.6 157.82399999999996c0 200.192 147.84 441.472 321.408 492.608l13.056 3.52 10.88 2.304-161.088 133.12a27.52 27.52 0 0 0-10.048 22.976l0.832 5.12 1.856 4.992A28.48 28.48 0 0 0 323.712 838.4l5.376-0.448 87.936-15.36 90.048 15.36 4.864 0.448 4.928-0.448 87.936-15.36 90.048 15.36a28.608 28.608 0 0 0 30.592-15.488zM512 604.992c-166.784 0-333.44-246.528-333.44-447.168 0-110.592 46.272-153.728 189.248-167.296l27.904-2.24c4.864-0.32 9.792-0.64 14.848-0.832l31.488-1.28 33.92-0.704c5.888-0.128 11.904-0.192 17.92-0.192l52.096 0.064 33.856 0.64c5.44 0.192 10.752 0.32 16 0.576l30.272 1.472c165.056 10.24 219.392 51.776 219.392 169.792 0 200.576-166.656 447.168-333.44 447.168z m0 177.408l-88.96-15.232-1.92-0.128L512 691.968l90.88 75.072-1.92 0.128-89.024 15.232zM483.456 439.04l31.936-31.936 32 32a32 32 0 0 0 40.832 3.648l4.48-3.648a32 32 0 0 0 3.712-40.832l-3.712-4.48-34.56-34.432H608a32 32 0 0 0 0-64h-64v-32h38.4a32 32 0 0 0 0-64H544v-64a32 32 0 1 0-64 0v64h-38.4a32 32 0 1 0 0 64H480v32h-64a32 32 0 1 0 0 64h56.64l-34.496 34.432a32 32 0 1 0 45.312 45.312z"  horiz-adv-x="1024" />
      
      <glyph glyph-name="Gildata-zm-enterprisemapfullmarketpage" unicode="&#58931;" d="M224 831.744a96 96 0 1 0 0-192 96 96 0 0 0 0 192z m0-64a32 32 0 1 1 0-64 32 32 0 0 1 0 64z m576 0a96 96 0 1 0 0-192 96 96 0 0 0 0 192z m0-64a32 32 0 1 1 0-64 32 32 0 0 1 0 64zM832 192a128 128 0 1 0 0-256 128 128 0 0 0 0 256z m0-64a64 64 0 1 1 0-128 64 64 0 0 1 0 128zM512 576a192 192 0 1 0 0-384 192 192 0 0 0 0 384z m0-64a128 128 0 1 1 0-256 128 128 0 0 1 0 256zM192 320a128 128 0 1 0 0-256 128 128 0 0 0 0 256z m0-64a64 64 0 1 1 0-128 64 64 0 0 1 0 128zM230.272 270.27200000000005l106.816 95.04 44.416-95.04-75.648-55.04z m363.008-26.24L659.328 320 832 167.36l-88.96-56.96z m66.048 220.096L572.8 542.72l161.792 128.96 65.344-64z m-206.464 79.488l-71.36-42.688-136.128 160.32 49.792 53.44z"  horiz-adv-x="1024" />
      
      <glyph glyph-name="Gildata-zm-courtnotice" unicode="&#58932;" d="M832 768a128 128 0 0 0 128-128v-512a128 128 0 0 0-128-128H192A128 128 0 0 0 64 128V640a128 128 0 0 0 128 128h640z m0-64H192a64 64 0 0 1-63.552-56.512L128 640v-512a64 64 0 0 1 56.512-63.552L192 64h640a64 64 0 0 1 63.552 56.512L896 128V640a64 64 0 0 1-56.512 63.552L832 704zM536.32 544h18.24c8.96 0 17.408-3.776 23.424-10.304 45.44-49.92 68.16-99.84 68.16-149.76 0-49.92-22.72-99.776-68.16-149.632A32.128 32.128 0 0 0 554.56 224h-18.24a14.208 14.208 0 0 0-10.944 23.36c37.824 45.44 56.768 91.008 56.768 136.576S563.2 475.072 525.376 520.64a14.208 14.208 0 0 0 10.88 23.36zM385.024 584.96l-8.064-0.512a64 64 0 0 1-45.76-28.928L282.56 480h-34.304a64 64 0 0 1-64-64v-64l0.448-7.488A64 64 0 0 1 248.256 288h34.56l48.64-74.624a64 64 0 0 1 117.568 34.88V520.96a64 64 0 0 1-64 64zM317.632 416l67.392 104.96v-272.64L317.504 352h-69.248v64h69.376zM732.416 256h71.168Q832 256 832 227.58399999999995v-7.168Q832 192 803.584 192h-71.168Q704 192 704 220.41600000000005v7.168Q704 256 732.416 256zM732.416 576h71.168Q832 576 832 547.5840000000001v-7.168Q832 512 803.584 512h-71.168Q704 512 704 540.4159999999999v7.168Q704 576 732.416 576zM732.416 416h71.168Q832 416 832 387.584v-7.168Q832 352 803.584 352h-71.168Q704 352 704 380.41600000000005v7.168Q704 416 732.416 416z"  horiz-adv-x="1024" />
      
      <glyph glyph-name="Gildata-zm-equityfreeze" unicode="&#58933;" d="M419.968 813.504L192 681.92a192 192 0 0 1-96-166.272v-263.296a192 192 0 0 1 96-166.272l227.968-131.584a192 192 0 0 1 192 0L839.936 86.08000000000004a192 192 0 0 1 96 166.272V515.648a192 192 0 0 1-96 166.272L611.968 813.44a192 192 0 0 1-192 0z m160-55.424l227.968-131.584a128 128 0 0 0 64-110.848v-263.296a128 128 0 0 0-64-110.848L579.968 9.919999999999959a128 128 0 0 0-128 0L224 141.44000000000005a128 128 0 0 0-64 110.848v263.36a128 128 0 0 0 64 110.848L451.968 758.08a128 128 0 0 0 128 0zM562.752 139.64800000000002c36.48 0 55.232 19.904 55.232 59.776V369.472h95.552a27.328 27.328 0 1 1 0 54.656h-95.552v50.88a29.312 29.312 0 0 1-58.624 0v-50.88h-82.496c21.632 35.2 41.536 76.16 60.288 122.24h193.984a28.416 28.416 0 1 1 0 56.96H558.208c1.984 5.76 4.48 13.248 7.424 22.4a27.84 27.84 0 0 1-20.224 35.584 32 32 0 0 1-37.952-21.888c-4.608-15.104-8.32-27.136-11.264-36.096h-70.528a28.416 28.416 0 0 1 0-56.96h49.472c-20.48-49.472-42.048-90.432-65.92-122.24l1.728-6.784a64 64 0 0 1 61.888-47.872h86.528v-155.84c0-14.208-5.696-21.632-16.512-21.632-6.528 0-15.232 0.448-26.24 1.28a21.12 21.12 0 0 1-22.4-25.472c3.52-16.384 17.984-28.16 34.752-28.16h33.792zM355.712 499.84a30.72 30.72 0 0 1 8.576 40.96l-51.2 85.056a28.352 28.352 0 0 1-39.296 9.344 29.312 29.312 0 0 1-9.472-40l53.184-87.488a26.688 26.688 0 0 1 38.208-7.872z m-42.944-317.056l67.456 181.12a29.824 29.824 0 0 1-16.832 38.08 28.672 28.672 0 0 1-37.44-16.384l-68.16-178.432a31.808 31.808 0 0 1 16.832-40.448 28.416 28.416 0 0 1 38.144 16.064z m443.456 8.448a33.536 33.536 0 0 1 2.688 43.904l-62.528 81.728a24.32 24.32 0 0 1-36.032 2.944 30.656 30.656 0 0 1-3.84-40.32l62.08-85.44a24.704 24.704 0 0 1 37.632-2.816z m-328.064 2.624l75.008 85.696a27.2 27.2 0 0 1-2.688 38.528 28.16 28.16 0 0 1-39.232-2.368l-68.48-75.008a35.584 35.584 0 0 1-2.112-45.504 24.192 24.192 0 0 1 37.504-1.28z"  horiz-adv-x="1024" />
      
      <glyph glyph-name="Gildata-zm-enterprisequickfacts" unicode="&#58934;" d="M354.432 634.624c25.984 0 47.104-21.12 47.104-47.104v-0.448a47.104 47.104 0 0 0-94.208 0v0.448c0 25.984 21.12 47.104 47.104 47.104z m0-139.456c25.984 0 47.104-21.12 47.104-47.104v-0.384a47.104 47.104 0 0 0-94.208 0v0.384c0 26.048 21.12 47.104 47.104 47.104z m0-139.392c25.984 0 47.104-21.12 47.104-47.104v-0.384a47.104 47.104 0 0 0-94.208 0v0.384c0 26.048 21.12 47.104 47.104 47.104z m0-139.392c25.984 0 47.104-21.12 47.104-47.104v-0.512a47.104 47.104 0 1 0-94.208 0v0.512c0 25.984 21.12 47.104 47.104 47.104z m130.432 418.24c25.984 0 47.104-21.12 47.104-47.104v-0.512a47.104 47.104 0 1 0-94.208 0v0.512c0 25.984 21.12 47.104 47.104 47.104z m0-139.456c25.984 0 47.104-21.12 47.104-47.104v-0.512a47.104 47.104 0 0 0-94.208 0v0.512c0 26.048 21.12 47.104 47.104 47.104z m0-139.392c25.984 0 47.104-21.12 47.104-47.104v-0.512a47.104 47.104 0 1 0-94.208 0v0.512c0 26.048 21.12 47.104 47.104 47.104z m0-139.392c25.984 0 47.104-21.12 47.104-47.104v-0.512a47.104 47.104 0 1 0-94.208 0v0.512c0 25.984 21.12 47.104 47.104 47.104zM419.584 832c75.84 0 151.68-37.952 227.52-113.792V-63.67999999999995H192V718.208C267.84 794.048 343.68 832 419.584 832z m0-64c-49.408 0-101.504-22.72-156.672-70.976L256 690.816V0.32000000000005h327.104V690.752l-6.912 6.272c-50.944 44.544-99.2 67.328-145.216 70.592L419.584 768zM583.168 271.552c140.8 0 254.976-114.176 254.976-255.04v-80.192H583.168V271.552z m63.936-75.008V0.32000000000005h127.04v16.192c0 78.72-47.616 146.368-115.648 175.616l-11.392 4.416zM160 0h704q32 0 32-32t-32-32H160q-32 0-32 32t32 32z"  horiz-adv-x="1024" />
      
      <glyph glyph-name="Gildata-zm-corporateportrait" unicode="&#58935;" d="M419.584 832c75.84 0 151.68-37.952 227.52-113.792v-470.4A320.448 320.448 0 0 0 888.64 0h39.424a32 32 0 1 0 0-64h-832a32 32 0 1 0 0 64H192V718.208C267.84 794.048 343.68 832 419.584 832z m-65.152-615.68a47.104 47.104 0 0 1-47.104-47.04 47.104 47.104 0 1 1 94.208-0.512 47.232 47.232 0 0 1-47.104 47.616z m130.432 0a47.104 47.104 0 0 1-47.104-47.04 47.104 47.104 0 1 1 94.208-0.512 47.232 47.232 0 0 1-47.104 47.616z m0 139.52a47.104 47.104 0 0 1-47.104-47.168 47.104 47.104 0 1 1 94.208-0.512 47.232 47.232 0 0 1-47.104 47.616z m-130.432 0a47.104 47.104 0 0 1-47.104-47.168 47.104 47.104 0 0 1 94.208-0.384 47.168 47.168 0 0 1-47.104 47.488z m130.432 139.328a47.104 47.104 0 0 1-47.104-47.104 47.104 47.104 0 0 1 94.208-0.512 47.232 47.232 0 0 1-47.104 47.616z m-130.432 0a47.104 47.104 0 0 1-47.104-47.104 47.104 47.104 0 0 1 94.208-0.384 47.168 47.168 0 0 1-47.104 47.488z m130.432 139.456a47.104 47.104 0 0 1-47.104-47.104 47.104 47.104 0 1 1 94.208-0.512 47.232 47.232 0 0 1-47.104 47.616z m-130.432 0a47.104 47.104 0 0 1-47.104-47.104 47.104 47.104 0 0 1 94.208-0.384 47.168 47.168 0 0 1-47.104 47.488z"  horiz-adv-x="1024" />
      
      <glyph glyph-name="Gildata-zm-environmentalpenalties" unicode="&#58936;" d="M96 0a32 32 0 1 0 0 64h160V228.99199999999996a272.896 272.896 0 0 0-96 52.48c-53.888 45.696-96 89.28-96 178.56 0 33.28 9.984 66.56 29.952 99.776l0.256-0.128a6400 6400 0 0 1 116.864 202.88C236.8 808.832 262.4 832 288 832c25.6 0 51.2-23.168 76.8-69.568l0.128 0.128a6400 6400 0 0 1 116.864-202.88C502.016 526.528 512 493.312 512 460.032c0-73.536-32.512-116.096-70.848-154.304L416 281.472c-25.344-24.064-57.28-41.792-95.936-53.056L320 64h160a32 32 0 1 0 0-64h224v66.24a224 224 0 1 0 64 0V0h160a32 32 0 1 0 0-64H416a32 32 0 1 0 0 64H96z m640 448a160 160 0 0 1-32-316.8v99.776a31.744 31.744 0 0 0-4.928 2.816l-4.48 3.712-45.248 45.248a32 32 0 0 0 40.832 48.96l4.48-3.712 9.344-9.408V352a32 32 0 1 0 64 0v-123.84L803.84 264a32 32 0 0 0 45.312-45.248L768 137.47199999999998v-6.144l2.752 0.448A160 160 0 0 1 736 448zM287.936 762.56l-2.944-3.584a197.12 197.12 0 0 1-17.92-27.328 6464 6464 0 0 0-77.824-137.088l-46.08-77.76c-8.576-16.576-13.44-32.384-14.72-47.616l-0.448-9.152c0-54.912 16.576-81.536 73.408-129.728 16.256-13.824 34.432-24.96 54.592-33.28V432l-4.928 2.752-4.48 3.712-45.248 45.248a32 32 0 0 0 40.832 48.96l4.48-3.712 9.344-9.28V544a32 32 0 0 0 64 0v-114.752l35.84 35.84a32 32 0 1 0 45.312-45.312L320 338.75199999999995l0.064-42.88c16.576 6.464 30.784 14.528 42.88 24.192l8.96 7.808 6.272 5.952C433.024 385.92 448 410.176 448 460.032c0 21.12-6.592 43.008-21.056 66.688a6464 6464 0 0 0-79.424 136.128l-7.296 12.928-0.512-0.256-30.912 56a196.608 196.608 0 0 1-17.856 27.52L288 762.56z"  horiz-adv-x="1024" />
      
      <glyph glyph-name="Gildata-zm-dishonestexecutor" unicode="&#58937;" d="M853.312 497.856c0 96.128-81.92 170.56-187.648 170.56-24 0-55.296-8.192-93.888-24.704a33.152 33.152 0 0 1-19.328-37.632 21.504 21.504 0 0 1 29.632-15.04c31.616 13.824 57.6 20.8 77.76 20.928 36.992 0 66.56-3.52 91.52-26.24 25.152-22.784 38.912-54.016 38.912-87.872 0-43.008-20.48-85.12-66.24-136.512-20.288-22.656-53.76-55.616-100.608-98.752a31.744 31.744 0 0 0-45.12 1.792l-63.808 69.568a32 32 0 0 0 1.92 45.12l25.792 23.936a32 32 0 0 1-2.56 49.088l-43.52 32.512a32 32 0 0 0-7.616 43.2l25.984 39.616a38.144 38.144 0 0 1-6.784 49.664c-38.016 32.896-97.984 51.2-149.376 51.2-105.728 0-187.648-74.432-187.648-170.432 0-117.76 115.968-212.352 291.648-358.016l37.824-26.944c12.8-9.152 30.464-6.784 40.384 5.376a25.92 25.92 0 0 1-5.12 37.632l-35.008 24.768C417.664 249.216 346.24 308.48 299.008 361.34400000000005c-45.824 51.456-66.304 93.504-66.304 136.576 0 33.92 13.888 65.088 38.912 87.872 25.024 22.72 59.136 35.2 96.256 35.2 39.36 0 68.864-15.296 96.64-41.088l-43.008-60.16a32 32 0 0 1 6.848-44.16l35.584-26.688a32 32 0 0 0 2.56-49.088l-19.584-18.176a32 32 0 0 1-2.432-44.48l120.704-138.88a43.52 43.52 0 0 1 60.8-4.8C765.12 310.144 853.312 395.264 853.312 497.92zM832 768a128 128 0 0 0 128-128v-512a128 128 0 0 0-128-128H192A128 128 0 0 0 64 128V640a128 128 0 0 0 128 128h640z m0-64H192a64 64 0 0 1-63.552-56.512L128 640v-512a64 64 0 0 1 56.512-63.552L192 64h640a64 64 0 0 1 63.552 56.512L896 128V640a64 64 0 0 1-56.512 63.552L832 704z"  horiz-adv-x="1024" />
      
      <glyph glyph-name="Gildata-zm-equitypledge" unicode="&#58938;" d="M325.376 122.30399999999997c37.568 0 56.96 19.328 56.96 57.472V336.76800000000003c9.088 4.032 21.12 9.728 36.096 16.96a43.712 43.712 0 0 1 24.704 39.36A16.64 16.64 0 0 1 419.008 408c-15.296-7.744-27.52-13.632-36.736-17.728v98.432h29.056a26.176 26.176 0 0 1 0 52.288h-29.056v72.576a26.432 26.432 0 1 1-52.864 0v-72.576h-43.84a26.176 26.176 0 1 1 0-52.288h43.84v-119.488c-13.44-4.8-32.192-10.368-56.064-16.832a28.48 28.48 0 0 1-20.16-34.368 26.048 26.048 0 0 1 33.6-18.368c17.92 6.016 32.192 11.008 42.624 14.976v-121.216c0-14.72-8-22.72-22.784-22.72-4.864 0-11.2 0.256-19.008 0.704a19.2 19.2 0 0 1-19.968-23.488c3.52-14.976 16.896-25.6 32.256-25.6h25.472z m304.96 19.328V293.568h73.92v-4.288a25.344 25.344 0 0 1 50.688 0V588.672a32 32 0 0 1-32 32h-232.96a32 32 0 0 1-32-32V289.28a25.344 25.344 0 1 1 50.56 0v4.288H579.2v-151.936a25.6 25.6 0 1 1 51.2 0z m-51.2 340.8h-70.528v88.704h70.528v-88.704z m125.12 0H630.4v88.704h73.92v-88.704zM579.2 343.03999999999996h-70.592v89.344h70.528v-89.344z m125.12 0H630.4v89.344h73.92v-89.344zM512 832a448 448 0 1 0 0-896 448 448 0 0 0 0 896z m0-64a384 384 0 1 1 0-768 384 384 0 0 1 0 768z"  horiz-adv-x="1024" />
      
      <glyph glyph-name="Gildata-zm-creditrating" unicode="&#58939;" d="M832 832a128 128 0 0 0 128-128v-640a128 128 0 0 0-128-128H192A128 128 0 0 0 64 64V704A128 128 0 0 0 192 832h640z m0-64H192a64 64 0 0 1-63.552-56.512L128 704v-640a64 64 0 0 1 56.512-63.552L192 0h640a64 64 0 0 1 63.552 56.512L896 64V704a64 64 0 0 1-56.512 63.552L832 768zM284.416 128h455.168Q768 128 768 99.58399999999995v-7.168Q768 64 739.584 64H284.416Q256 64 256 92.41600000000005v7.168Q256 128 284.416 128zM526.144 692.4159999999999a32 32 0 0 0 14.528-14.528l65.344-132.48 146.176-21.184a32 32 0 0 0 17.728-54.592l-105.728-103.04 24.96-145.6a32 32 0 0 0-46.464-33.728L512 256l-130.688-68.736a32 32 0 0 0-46.464 33.728l24.96 145.536-105.728 103.04a32 32 0 0 0 17.728 54.656l146.176 21.248 65.28 132.416a32 32 0 0 0 42.88 14.528z m37.376-205.44L512 591.36l-51.52-104.384-115.264-16.768 83.392-81.28-19.776-114.816L512 328.32000000000005l103.104-54.208-19.712 114.816 83.328 81.28-115.2 16.768z"  horiz-adv-x="1024" />
      
      <glyph glyph-name="Gildata-zm-finalcase" unicode="&#58940;" d="M352 832a96 96 0 0 0 96-96v-704a96 96 0 0 0-96-96H160a96 96 0 0 0-96 96V736a96 96 0 0 0 96 96h192z m0-64H160a32 32 0 0 1-31.488-26.24L128 736v-704a32 32 0 0 1 26.24-31.488L160 0h192a32 32 0 0 1 31.488 26.24L384 32V736a32 32 0 0 1-26.24 31.488L352 768zM320 576a32 32 0 0 0 5.76-63.488L320 512H192a32 32 0 0 0-5.76 63.488L192 576h128z m0-128a32 32 0 0 0 5.76-63.488L320 384H192a32 32 0 0 0-5.76 63.488L192 448h128zM713.728 829.952a96 96 0 0 0 112.512-75.52l132.928-668.288a96 96 0 0 0-75.456-112.896l-188.864-36.672a96 96 0 0 0-112.512 75.52L449.472 680.3199999999999A96 96 0 0 0 524.8 793.216l188.864 36.736z m12.224-62.848l-188.608-36.672a32 32 0 0 1-25.728-31.872l0.64-5.76L645.12 24.511999999999944a32 32 0 0 1 31.808-25.728l5.696 0.64 188.608 36.608a32 32 0 0 1 25.728 31.872l-0.64 5.76-132.8 668.288a32 32 0 0 1-31.744 25.728l-5.76-0.576zM730.24 584.704a32 32 0 0 0 17.728-61.248l-5.568-1.6-125.632-24.448a32 32 0 0 0-17.792 61.248l5.568 1.6 125.632 24.448z m24.32-125.696a32 32 0 0 0 17.792-61.184l-5.504-1.6-125.696-24.448a32 32 0 0 0-17.728 61.248l5.568 1.6 125.632 24.384z"  horiz-adv-x="1024" />
      
      <glyph glyph-name="Gildata-zm-financialregulatorypenalties" unicode="&#58941;" d="M512 832c118.656-89.408 252.672-134.08 382.848-134.08C909.696 232.64 782.08-21.312000000000012 512-64c-270.08 42.688-397.696 296.64-382.848 761.92C259.328 697.92 393.344 742.592 512 832z m0-78.272l-2.432-1.664c-96.832-63.744-203.136-102.656-310.976-114.368l-6.592-0.576v-13.44c0.256-373.568 103.424-573.44 303.872-619.392L512 1.024000000000001l2.944 0.448C724.096 41.66399999999999 831.744 241.98400000000004 832 623.6800000000001v13.44l-6.528 0.576c-107.84 11.712-214.144 50.56-311.04 114.368L512 753.7280000000001zM719.36 499.2v77.568A31.296 31.296 0 0 1 688 608.0640000000001H319.36a31.296 31.296 0 0 1-31.296-31.296v-77.44c0-17.28 14.016-31.296 31.296-31.296h368.768c17.28 0 31.232 14.016 31.232 31.296z m-51.2 13.824H592v49.92h76.16v-49.92z m-125.056 0h-78.912v49.92h78.912v-49.92z m-127.808 0h-76.16v49.92h76.16v-49.92z m15.04-134.464a20.928 20.928 0 0 1-6.016 30.528l-53.44 31.68a16.064 16.064 0 0 1-23.552-9.024c-3.584-11.52 0.64-24.128 10.624-31.04l39.168-27.456c10.688-7.424 25.344-5.12 33.28 5.312z m216.64-218.048c42.24 0 63.936 23.68 63.936 70.4V407.296a26.944 26.944 0 0 1-53.952 0v-163.072c0-21.952-9.408-33.536-28.352-33.536-7.168 0-16.832 0.448-29.056 1.28a20.48 20.48 0 0 1-21.504-24.64c3.2-15.616 17.024-26.88 32.96-26.88h35.968z m-66.688 116.864V379.52a25.28 25.28 0 1 1-50.56 0v-102.144a25.28 25.28 0 1 1 50.56 0z m-175.68-114.88l79.616 42.56a39.744 39.744 0 0 1 20.48 41.344 18.624 18.624 0 0 1-28.352 12.8c-19.712-12.544-34.752-21.888-45.056-28.096V315.84000000000003a31.296 31.296 0 0 1-31.232 31.296h-81.728a25.984 25.984 0 1 1 0-51.968h61.824v-69.76c0-6.976-4.608-15.616-13.888-26.048l7.808-24.512a21.44 21.44 0 0 1 30.528-12.352z"  horiz-adv-x="1024" />
      
      <glyph glyph-name="Gildata-zm-groupportrait2" unicode="&#58942;" d="M512 832c85.312 0 170.688-37.312 256-112v-208h64a128 128 0 0 0 127.68-118.4l0.32-9.6v-448H576a64 64 0 0 1 64 64V256a64 64 0 0 1-64 64H448a64 64 0 0 1-64-64v-256a64 64 0 0 1 64-64H64V384a128 128 0 0 0 128 128h64V720c85.312 74.688 170.688 112 256 112z m64-576v-256H448V256h128z m35.584 256H412.416A28.416 28.416 0 0 1 384 483.584v-7.168C384 460.8 396.736 448 412.416 448h199.168A28.416 28.416 0 0 1 640 476.416v7.168A28.416 28.416 0 0 1 611.584 512z m0 128H412.416A28.416 28.416 0 0 1 384 611.5840000000001v-7.168C384 588.8 396.736 576 412.416 576h199.168A28.416 28.416 0 0 1 640 604.4159999999999v7.168A28.416 28.416 0 0 1 611.584 640z"  horiz-adv-x="1024" />
      
      <glyph glyph-name="Gildata-zm-fundpublicopinion" unicode="&#58943;" d="M832 832a128 128 0 0 0 128-128v-519.04a128 128 0 0 0-128-128h-87.488l-47.424-128-175.424 128H192a128 128 0 0 0-128 128V704A128 128 0 0 0 192 832h640z m0-64H192a64 64 0 0 1-63.552-56.512L128 704v-519.04a64 64 0 0 1 56.512-63.616l7.488-0.384h350.528l123.904-90.368 33.536 90.368H832a64 64 0 0 1 63.552 56.576l0.448 7.424V704a64 64 0 0 1-56.512 63.552L832 768zM384 448a32 32 0 0 0-5.76 63.488L384 512h50.048l-40.832 41.6a32 32 0 0 0 41.216 48.576l4.352-3.712L512 524.0319999999999l73.216 74.432a32 32 0 0 0 49.28-40.448l-3.712-4.48L589.888 512H640a32 32 0 0 0 5.76-63.488L640 448h-96v-64h64a32 32 0 0 0 5.76-63.488L608 320h-64v-64a32 32 0 0 0-63.488-5.76L480 256v64h-64a32 32 0 0 0-5.76 63.488L416 384h64v64h-96z"  horiz-adv-x="1024" />
      
      <glyph glyph-name="Gildata-zm-courtsession" unicode="&#58944;" d="M448.011956 525.020036c0.732 0 1.463-0.732 2.195-0.732-0.732 0.731-1.463 0.731-2.195 0.731z m132.827987-207.14098c0-0.732 0-2.194 0.731-2.925999-0.731 0.732-0.731 1.463-0.731 2.925999zM446.255956 522.9700359999999a72.410993 72.410993 0 0 1-7.313999 7.315c2.486-0.732 4.9-3.145 7.313999-7.315z m139.117987-212.113979c-2.195 2.706-4.389 5.558999-7.314999 8.264999 5.12-2.706 7.314999-5.558999 7.314999-8.264999z m-74.019993 200.484981l-4.39 9.946999c1.463-4.462 2.926-9.288999 5.12-14.115999 0 1.243 0 2.925-0.73 4.169z m-65.902993-46.884996c0.732-1.097 0.732-1.828 1.462999-2.926 0.732-1.462 2.194-2.925 3.657-4.387999 0 0.366-0.731 1.097-0.731 1.463-1.463 2.194-2.926 4.023-4.388999 5.850999z m0.804999 0a301.859971 301.859971 0 0 0-7.313999 65.828994c1.828-21.869998 4.315-43.959996 7.313999-65.828994zM182.942982 377.93005100000005a36.570996 36.570996 0 0 0 35.985997-29.987997l0.585-6.583v-426.715958a36.570996 36.570996 0 0 0-72.557993-6.583l-0.585 6.583V341.35805400000004a36.570996 36.570996 0 0 0 36.571996 36.570997z m219.427979 0a36.570996 36.570996 0 0 0 35.985996-29.987997l0.586-6.583v-426.715958a36.570996 36.570996 0 0 0-72.557993-6.583l-0.585 6.583V341.35805400000004a36.570996 36.570996 0 0 0 36.570997 36.570997zM621.799939 377.93005100000005a36.570996 36.570996 0 0 0 35.985997-29.989997l0.585-6.582v-426.715958a36.570996 36.570996 0 0 0-72.557993-6.583l-0.585 6.583V341.35805400000004a36.570996 36.570996 0 0 0 36.571996 36.570997z m219.427979 0a36.570996 36.570996 0 0 0 35.986996-29.989997l0.585-6.582v-426.715958a36.570996 36.570996 0 0 0-72.557993-6.583l-0.585 6.583V341.35805400000004a36.570996 36.570996 0 0 0 36.570997 36.570997zM987.513904-54.85690699999998a36.570996 36.570996 0 0 0 6.582999-72.557993l-6.582999-0.585H36.656996a36.570996 36.570996 0 0 0-6.582999 72.557993l6.582999 0.585h950.856908zM489.630952 887.515001L49.822995 521.801037a36.570996 36.570996 0 0 1 23.404998-64.657994h877.714914a36.570996 36.570996 0 0 1 23.404998 64.657994L536.441948 887.515001a36.570996 36.570996 0 0 1-46.810996 0z m23.331998-75.629993l337.188967-281.599972h-675.839934l338.650967 281.599972zM490.288952 667.575022l-49.224995-7.313999 35.619996-35.401997-8.337999-50.029995 43.885996 23.552998 43.958996-23.551998-8.266 50.029995 35.474997 35.399997-49.224995 7.314999-21.942998 45.567996z"  horiz-adv-x="1024" />
      
      <glyph glyph-name="Gildata-zm-industrialbondspread" unicode="&#58945;" d="M927.36 386.368l1.088-3.584L949.76 241.27999999999997a12.8 12.8 0 0 0-13.248-14.72l-3.392 0.64-36.032 11.712a411.648 411.648 0 0 0-778.944 25.856 27.456 27.456 0 0 0 52.48 15.872 356.736 356.736 0 0 1 674.24-24.832l-33.472 10.88a12.8 12.8 0 0 0-7.424 18.048l2.24 3.2 100.48 101.888a12.8 12.8 0 0 0 20.672-3.456zM434.432 570.24l4.352-3.712L512 492.032l73.216 74.432a32 32 0 0 0 49.28-40.448l-3.712-4.48L589.888 480H640a32 32 0 0 0 5.76-63.488L640 416h-96v-64h64a32 32 0 0 0 5.76-63.488L608 288h-64v-64a32 32 0 0 0-63.488-5.76L480 224v64h-64a32 32 0 0 0-5.76 63.488L416 352h64v64h-96a32 32 0 0 0-5.76 63.488L384 480h50.048l-40.832 41.6a32 32 0 0 0 41.216 48.576zM512 795.456A411.52 411.52 0 0 0 907.2 498.88a27.456 27.456 0 0 0-52.736-15.296A356.736 356.736 0 0 1 179.2 512.192l33.472-10.88a12.8 12.8 0 0 0 7.424-18.048l-2.24-3.2-100.48-101.888a12.8 12.8 0 0 0-20.672 3.456l-1.088 3.584L74.24 526.72a12.8 12.8 0 0 0 13.248 14.72l3.392-0.64 36.032-11.712A411.648 411.648 0 0 0 512 795.52z"  horiz-adv-x="1024" />
      
      <glyph glyph-name="Gildata-zm-industrypublicopinion" unicode="&#58946;" d="M832 832a128 128 0 0 0 128-128v-519.04a128 128 0 0 0-128-128h-87.488l-47.424-128-175.424 128H192a128 128 0 0 0-128 128V704A128 128 0 0 0 192 832h640z m0-64H192a64 64 0 0 1-63.552-56.512L128 704v-519.04a64 64 0 0 1 56.512-63.616l7.488-0.384h350.528l123.904-90.368 33.536 90.368H832a64 64 0 0 1 63.552 56.576l0.448 7.424V704a64 64 0 0 1-56.512 63.552L832 768zM288 576h192q32 0 32-32t-32-32H288q-32 0-32 32t32 32zM288 384h448q32 0 32-32t-32-32H288q-32 0-32 32t32 32z"  horiz-adv-x="1024" />
      
      <glyph glyph-name="Gildata-zm-groupportrait" unicode="&#58947;" d="M64-64V384a128 128 0 0 0 128 128h64V720c85.312 74.688 170.688 112 256 112 85.312 0 170.688-37.312 256-112v-208h64a128 128 0 0 0 127.68-118.4l0.32-9.6v-448H64z m640 753.984l-7.68 6.08c-58.88 44.864-115.52 68.224-170.56 71.552L512 768c-59.328 0-120.576-23.296-184.32-71.936l-7.68-6.016V0h78.208V192a64 64 0 0 0 64 64h99.584a64 64 0 0 0 64-64v-192H704V689.984zM561.792 192h-99.584v-192h99.584V192zM256 448h-64a64 64 0 0 1-63.552-56.512L128 384v-384h128V448z m576 0h-64v-448h128V384l-0.448 7.488A64 64 0 0 1 832 448z m-224 64a32 32 0 0 0 0-64H416a32 32 0 0 0 0 64h192z m0 128a32 32 0 0 0 0-64H416a32 32 0 0 0 0 64h192z"  horiz-adv-x="1024" />
      
      <glyph glyph-name="Gildata-zm-fiduciarydefault" unicode="&#58948;" d="M876.352 359.424l3.136-4.672 7.616-12.8a550.475 550.475 0 0 0 9.024-16.64l9.984-19.904c25.792-53.44 55.68-131.648 53.76-189.12-1.728-56.256-34.688-116.352-98.88-180.288H754.88L728-29.75999999999999H421.12l-77.312 44.16-51.136 29.824-30.72 18.368-41.216 25.216-24.192 15.36-21.568 14.08-18.88 12.8-16.256 11.584a535.744 535.744 0 0 0-7.168 5.376L120.32 156.79999999999995a202.24 202.24 0 0 0-9.6 8.512c-52.352 49.536-57.216 91.008-31.488 123.712 24.192 30.784 73.984 26.56 129.536-6.4l27.008-16.896 19.84-11.52 23.04-12.672 40.704-21.312 48-24 55.424-26.752L442.88 160l115.456-2.112 30.72-0.256h34.88l21.632 0.256 25.152 0.768 11.968 0.832a127.36 127.36 0 0 1 4.48 0.512c37.568 4.864 40.96 9.792 40.96 26.24 0 4.8-8.96 10.432-21.888 17.152l-26.752 13.44c-28.992 14.848-61.888 33.92-70.528 59.264-16.384 47.744 14.784 107.456 66.944 107.456L742.08 384l12.992-0.192 26.24-0.768c43.52-1.984 84.096-7.872 95.04-23.68zM764.8 324.672l-27.52 0.384-61.44-0.448c-6.912 0-16-15.488-11.2-29.44l2.048-1.792 5.888-4.352 9.6-6.336 6.208-3.712 10.88-5.952 37.568-19.2c9.024-4.8 16-8.96 22.4-14.08 16.448-12.864 27.712-28.16 27.712-53.568 0-54.784-31.232-76.736-92.288-84.608l-5.632-0.64-13.824-1.024-17.6-0.64-33.728-0.64-50.24 0.192-89.6 1.28-42.56 0.96a58.88 58.88 0 0 0-23.68 5.632l-59.136 28.16-51.776 25.6L276.48 176l-27.2 14.336-23.936 13.248-20.736 12.16-9.216 5.568-8.384 5.376a196.416 196.416 0 0 1-47.104 23.68l-7.68 1.92a40 40 0 0 1-2.752 0.448l-3.392 0.128c-0.32-0.064-0.512-0.128-0.64-0.256-2.56-3.328-2.816-4.096-2.24-6.4 1.792-8.32 10.368-21.44 27.968-38.08l8.128-7.168 5.056-4.096 11.968-8.96 14.464-10.304 16.96-11.52 30.08-19.456 35.584-22.08 26.752-16.192 44.608-26.432 67.84-39.168 23.936-13.568H728a58.88 58.88 0 0 0 41.216-16.832l5.12-5.76 9.216-11.648h52.224l5.248 5.632c36.48 41.088 55.616 77.632 59.328 109.056l0.64 8.512c1.472 46.656-32.128 136.96-61.056 188.288l-6.72 11.264-4.288 1.024-4.48 0.896a408.192 408.192 0 0 1-59.648 5.12zM640 832a160 160 0 0 0 159.68-149.504L800 672v-256h-64V672a96 96 0 0 1-86.784 95.552L640 768H320a96 96 0 0 1-95.552-86.784L224 672v-310.528h-64V672A160 160 0 0 0 309.504 831.6800000000001L320 832h320zM512.896 704l-32.192-149.312h128.832L448 320l31.36 154.304H353.536z"  horiz-adv-x="1024" />
      
      <glyph glyph-name="Gildata-zm-financialwhitewashwarning" unicode="&#58949;" d="M416 358.84799999999996h192q32 0 32-32t-32-32H416q-32 0-32 32t32 32zM441.6 262.84799999999996h140.8q32 0 32-32t-32-32H441.6q-32 0-32 32t32 32zM483.456 438.656l31.936-32 32 32a32 32 0 0 0 40.832 3.648l4.48-3.648a32 32 0 0 0 0-45.312l-45.248-45.248a32 32 0 0 0-32.064-7.936 31.936 31.936 0 0 0-32 7.936l-45.248 45.248a32 32 0 1 0 45.312 45.312zM512 358.84799999999996q32 0 32-32v-192q0-32-32-32t-32 32v192q0 32 32 32zM512 832c81.28 0 158.208-22.272 230.784-66.88a63.744 63.744 0 0 0-3.968-111.296l-20.288-10.88c-34.176-18.944-51.2-33.088-51.2-42.432 0-3.52 2.88-9.088 8.768-16.832l8.448-10.24 11.2-12.16 6.72-6.912 15.424-15.168 18.304-17.28 10.24-9.28a255.36 255.36 0 0 0 75.648-253.568l-8.064-32.128-3.776-16.64-2.56-12.672a156.096 156.096 0 0 1-0.768-4.928l-0.64-6.912c0-50.176 19.648-100.288 58.88-150.4a31.68 31.68 0 0 0-15.872-50.176A1172.8 1172.8 0 0 0 514.176-64c-102.912 0-205.824 13.632-308.672 40.896l-34.304 9.6a32 32 0 0 0-17.28 48.832c39.296 57.408 58.944 107.52 58.944 150.4l-0.64 6.784-1.792 11.392-2.944 16-9.344 44.288a256 256 0 0 0 77.248 243.52l20.864 19.328 17.792 17.152 7.808 7.808 13.44 13.952a353.28 353.28 0 0 1 5.504 6.208l8.96 10.752c6.144 8.128 9.216 13.952 9.216 17.6 0 7.68-11.648 18.56-34.944 32.704l-17.28 9.92-9.92 5.312-10.88 5.568a64 64 0 0 0-4.224 111.68l0.128-0.192C354.24 809.856 430.976 832 512 832z m0-64c-62.784 0-122.432-15.552-179.648-47.104l-17.152-9.92 12.928-6.592C392 671.232 419.52 649.6 422.656 608.96l0.32-8.448c0-22.976-8.448-42.112-30.976-68.096l-13.696-14.976c-2.56-2.56-5.12-5.312-7.936-8.064l-18.24-17.728-21.504-20.096-12.032-11.008a192 192 0 0 1-60.224-170.24l2.304-12.544 9.728-46.144 4.48-24.576 1.472-12.032c0.384-3.456 0.512-6.528 0.512-9.216 0-44.48-14.272-91.264-41.856-141.056l-4.672-8.064 31.232-7.68c72.32-16.64 144.448-26.048 216.512-28.416l36.096-0.576c82.944 0 165.248 9.344 246.848 28.16l26.752 6.592-2.368 3.712c-25.6 42.944-40 87.168-42.688 132.224l-0.384 15.104c0 5.888 0.64 13.056 2.24 22.016l2.816 14.912 4.16 18.112 8.576 34.368a192 192 0 0 1-47.104 180.928l-5.568 5.44-27.52 25.28c-53.952 50.304-74.112 75.52-76.416 107.264l-0.256 6.4c0 45.888 26.496 68.224 93.248 103.424l12.736 6.72-17.088 9.984a367.296 367.296 0 0 1-161.344 46.912L512 768zM384 640h256v-64H384z"  horiz-adv-x="1024" />
      
      <glyph glyph-name="Gildata-zm-equityreminder" unicode="&#58950;" d="M397.056 158.144V405.632l35.392-47.36a19.968 19.968 0 0 1 32.64 1.024 40.704 40.704 0 0 1-1.28 46.72c-28.8 38.912-51.072 65.6-66.752 80v9.536h44.672a25.856 25.856 0 1 1 0 51.712h-44.672v79.68a26.752 26.752 0 1 1-53.44 0V547.2h-58.88a25.856 25.856 0 0 1 0-51.712h38.72c-13.312-44.032-38.784-102.784-76.544-176.384l11.904-30.72a15.552 15.552 0 0 1 28.16-1.856c26.88 49.088 45.76 88.768 56.64 119.04V158.08000000000004a26.752 26.752 0 1 1 53.44 0z m363.84-8.32a29.184 29.184 0 0 1-2.944 40.64c-53.248 47.36-90.24 85.504-111.104 114.368 45.44 75.072 75.648 163.84 91.52 266.816V590.72a32 32 0 0 1-32 32l-202.624 0.128a25.856 25.856 0 0 1-25.856-25.92v-4.8c0-11.648 9.408-21.056 21.056-21.056 9.088-96.704 36.928-184.32 84.16-263.424-22.4-30.784-62.72-69.952-121.152-117.44a28.096 28.096 0 0 1 35.2-43.712c56 44.864 95.488 82.304 118.4 112.256 20.032-27.392 55.232-64.512 105.6-111.36a27.52 27.52 0 0 1 39.68 2.432zM614.4 358.592c-35.84 64.256-56.896 135.936-63.744 214.4h136c-12.544-80.128-36.416-151.808-72.256-214.4zM832 832a128 128 0 0 0 128-128v-640a128 128 0 0 0-128-128H192A128 128 0 0 0 64 64V704A128 128 0 0 0 192 832h640z m0-64H192a64 64 0 0 1-63.552-56.512L128 704v-640a64 64 0 0 1 56.512-63.552L192 0h640a64 64 0 0 1 63.552 56.512L896 64V704a64 64 0 0 1-56.512 63.552L832 768z"  horiz-adv-x="1024" />
      
      <glyph glyph-name="Gildata-zm-Integrity" unicode="&#58951;" d="M481.664 870.912A51.2 51.2 0 0 0 544 871.04c121.088-92.992 259.84-149.76 416.192-170.368v-281.024c-0.064-14.272-0.128-24.704-0.256-30.208-0.512-254.272-149.44-426.752-446.912-517.44C213.824-35.84 64.192 136.576 64 389.44V700.672C221.952 721.28 361.216 777.92 481.792 870.784zM609.92 629.12a24.704 24.704 0 0 1-24.704-24.704v-0.128c0.128-24.32 0.512-43.072 1.088-56.128H458.56a32 32 0 0 1-32-32v-178.304c-1.024-48.96-15.68-105.472-44.032-169.472a34.816 34.816 0 0 1 8.576-40 19.328 19.328 0 0 1 30.4 6.208c36.48 78.208 55.424 145.92 56.768 203.264V384h45.568c-0.64-59.52-1.728-97.28-3.392-113.536-2.24-15.744-6.784-24.768-14.656-26.432h-12.8a16.832 16.832 0 0 1-16.128-21.632c3.84-12.864 15.68-21.696 29.056-21.696h12.8c19.712 1.152 33.216 12.928 41.088 35.456 4.736 13.44 8.32 66.688 10.944 159.616a32 32 0 0 1-31.296 32.64h-61.184v70.912h109.632c2.816-70.848 8.96-129.344 17.984-176 4.48-23.04 8.96-44.416 14.656-63.552-16.192-25.6-44.48-54.4-84.864-86.656a25.92 25.92 0 0 1-4.288-36.224 26.24 26.24 0 0 1 36.736-4.48l0.256 0.128c32.512 25.984 56.32 49.024 71.232 69.312 5.12-13.44 10.688-25.28 16.896-35.456 20.224-33.728 10.688-80.384 56.768-50.56 25.728 16.64 40.64 46.272 44.864 89.024a39.488 39.488 0 0 1-20.352 38.592 16.32 16.32 0 0 1-24.128-12.608c-3.712-35.456-6.656-53.12-8.768-53.12-5.632 0-14.08 12.864-24.192 37.632a226.752 226.752 0 0 0-11.264 33.152c16.768 30.848 36.736 85.376 59.776 163.52a26.24 26.24 0 0 1-15.04 31.616 20.224 20.224 0 0 1-27.392-13.632c-12.928-50.048-24.128-86.4-33.664-108.992l-3.328 19.2c-6.208 37.632-10.688 90.496-12.992 159.104h77.888a24.448 24.448 0 0 1 0 48.896h-30.656l0.64 0.256a35.008 35.008 0 0 1 17.088 47.808l-7.424 14.72a22.08 22.08 0 0 1-27.968 10.56A18.688 18.688 0 0 1 656 597.248l0.64-1.408 24.064-47.616h-44.992l-0.768 56.192a25.088 25.088 0 0 1-25.088 24.768zM328.192 462.08H259.84a25.6 25.6 0 0 1 0-51.136h48.64V214.72c0-6.016-3.136-13.184-9.344-21.568l-5.312-6.528 9.856-23.36a18.048 18.048 0 0 1 28.736-6.4l52.672 47.168a44.416 44.416 0 0 1 13.312 44.16 15.168 15.168 0 0 1-25.6 6.72l-12.608-13.184V430.08a32 32 0 0 1-32 32z m-34.944 145.408a24.192 24.192 0 0 1 0.256-35.2l53.248-49.664a26.752 26.752 0 0 1 37.312 0.768 25.152 25.152 0 0 1-0.896 36.224l-52.48 48.192a27.392 27.392 0 0 1-37.44-0.32z"  horiz-adv-x="1024" />
      
      <glyph glyph-name="Gildata-zm-industry" unicode="&#58952;" d="M181.12 780.8c-50.56 0-91.52-40.96-91.52-91.52v-641.024c0-33.728 27.328-61.056 61.056-61.056H577.92a60.288 60.288 0 0 1 17.92 2.688 30.528 30.528 0 0 1 12.608-2.688h305.216a30.528 30.528 0 0 1 30.528 30.528V517.056a91.52 91.52 0 0 1-73.6 89.792l-231.68 46.336V689.28c0 50.56-40.96 91.584-91.52 91.584H181.12z m457.92-189.824l219.648-43.968c14.208-2.816 24.512-15.36 24.512-29.888v-468.864h-91.52V231.36a30.528 30.528 0 1 1-61.12 0v-183.104h-91.52v542.72z m-61.056-23.808v-518.912H486.4V170.368c0 50.56-40.96 91.52-91.52 91.52h-61.12c-50.56 0-91.52-40.96-91.52-91.52v-122.112h-91.584v640.96a30.528 30.528 0 0 0 30.528 30.528h366.272a30.528 30.528 0 0 0 30.528-30.528v-122.048zM303.232 48.256V170.368c0 16.832 13.696 30.464 30.528 30.464h61.056c16.896 0 30.528-13.632 30.528-30.464v-122.112H303.232z m-30.464 517.376c0 8.512 3.2 16.64 8.96 22.656a29.824 29.824 0 0 0 21.504 9.344h122.112c16.896 0 30.528-14.272 30.528-32 0-17.664-13.632-32-30.528-32H303.232a29.824 29.824 0 0 0-21.568 9.408 32.832 32.832 0 0 0-8.96 22.592z m0-183.104c0 8.512 3.2 16.64 8.96 22.592a29.824 29.824 0 0 0 21.504 9.408h122.112c10.88 0 20.992-6.08 26.432-16a33.344 33.344 0 0 0 0-32 30.272 30.272 0 0 0-26.432-16H303.232a29.824 29.824 0 0 0-21.568 9.344 32.832 32.832 0 0 0-8.96 22.656z m427.264 0c0 17.664 13.696 32 30.528 32h61.056c10.88 0 20.992-6.08 26.432-16a33.344 33.344 0 0 0 0-32 30.272 30.272 0 0 0-26.432-16H730.56a31.296 31.296 0 0 0-30.528 32z"  horiz-adv-x="1024" />
      
      <glyph glyph-name="Gildata-zm-implement" unicode="&#58953;" d="M555.886-54.857H102.4c-16.091 0-29.33-17.774-29.33-36.572S86.235-128 102.4-128h453.486c16.091 0 29.257 17.774 29.257 36.571s-13.166 36.572-29.257 36.572M370.615 777.8a109.714 109.714 0 0 0 149.87 40.156L710.51 708.242a109.714 109.714 0 0 0 40.228-149.87l-119.15-206.116 463.58-278.528-113.006-188.05L521.874 162.23l-63.853-110.592a109.714 109.714 0 0 0-140.435-45.056l-9.435 4.9-190.025 109.715a109.714 109.714 0 0 0-40.156 149.87z m248.027-503.076l-37.668-62.684L957.147-13.97l37.669 62.683-376.174 226.012z m-134.729 479.89a36.571 36.571 0 0 1-49.956-13.385L141.385 234.496a36.571 36.571 0 0 1 13.385-49.957l190.025-109.714a36.571 36.571 0 0 1 49.957 13.385l292.571 506.734a36.571 36.571 0 0 1-13.385 49.957z"  horiz-adv-x="1097" />
      
      <glyph glyph-name="Gildata-zm-integritypunishment" unicode="&#58954;" d="M512 832c118.656-89.408 252.672-134.08 382.848-134.08C909.696 232.64 782.08-21.312000000000012 512-64c-270.08 42.688-397.696 296.64-382.848 761.92C259.328 697.92 393.344 742.592 512 832z m0-78.272l-2.432-1.664c-96.832-63.744-203.136-102.656-310.976-114.368l-6.592-0.576v-13.44c0.256-373.568 103.424-573.44 303.872-619.392L512 1.024000000000001l2.944 0.448C724.096 41.66399999999999 831.744 241.98400000000004 832 623.6800000000001v13.44l-6.528 0.576c-107.84 11.712-214.144 50.56-311.04 114.368L512 753.7280000000001zM719.36 499.2v77.568A31.296 31.296 0 0 1 688 608.0640000000001H319.36a31.296 31.296 0 0 1-31.296-31.296v-77.44c0-17.28 14.016-31.296 31.296-31.296h368.768c17.28 0 31.232 14.016 31.232 31.296z m-51.2 13.824H592v49.92h76.16v-49.92z m-125.056 0h-78.912v49.92h78.912v-49.92z m-127.808 0h-76.16v49.92h76.16v-49.92z m15.04-134.464a20.928 20.928 0 0 1-6.016 30.528l-53.44 31.68a16.064 16.064 0 0 1-23.552-9.024c-3.584-11.52 0.64-24.128 10.624-31.04l39.168-27.456c10.688-7.424 25.344-5.12 33.28 5.312z m216.64-218.048c42.24 0 63.936 23.68 63.936 70.4V407.296a26.944 26.944 0 0 1-53.952 0v-163.072c0-21.952-9.408-33.536-28.352-33.536-7.168 0-16.832 0.448-29.056 1.28a20.48 20.48 0 0 1-21.504-24.64c3.2-15.616 17.024-26.88 32.96-26.88h35.968z m-66.688 116.864V379.52a25.28 25.28 0 1 1-50.56 0v-102.144a25.28 25.28 0 1 1 50.56 0z m-175.68-114.88l79.616 42.56a39.744 39.744 0 0 1 20.48 41.344 18.624 18.624 0 0 1-28.352 12.8c-19.712-12.544-34.752-21.888-45.056-28.096V315.84000000000003a31.296 31.296 0 0 1-31.232 31.296h-81.728a25.984 25.984 0 1 1 0-51.968h61.824v-69.76c0-6.976-4.608-15.616-13.888-26.048l7.808-24.512a21.44 21.44 0 0 1 30.528-12.352z"  horiz-adv-x="1024" />
      
      <glyph glyph-name="Gildata-zm-latestannouncement" unicode="&#58955;" d="M719.36 837.568a32 32 0 0 0 37.056-25.984L774.08 711.36l57.92-0.064a128 128 0 0 0 128-128V64a128 128 0 0 0-128-128H192A128 128 0 0 0 64 64V583.296a128 128 0 0 0 128 128h57.856l17.728 100.288a32 32 0 1 0 63.04-11.072L314.88 711.36h394.176l-15.68 89.152a32 32 0 0 0 20.352 35.52zM832 647.296H192a64 64 0 0 1-63.552-56.576l-0.448-7.424V64a64 64 0 0 1 56.512-63.552L192 0h640a64 64 0 0 1 63.552 56.512L896 64V583.296a64 64 0 0 1-56.512 63.552l-7.488 0.448zM680.384 586.688a64 64 0 0 0 11.648-15.04l22.912-40.96a511.552 511.552 0 0 0 65.28-249.984v-74.112a64 64 0 0 0-80.128-61.952L493.632 198.39999999999998l-21.44-7.424 26.56-58.752a35.2 35.2 0 0 0-12.032-43.52l-5.504-3.072a35.2 35.2 0 0 0-46.656 17.6l-29.056 64.256-53.76-19.008a64 64 0 0 0-84.096 48.384L244.352 319.36a64 64 0 0 0 46.72 73.856l154.496 40.448 144.32 151.04a64 64 0 0 0 90.496 2.048z m-58.24-58.24c-36.224-45.44-87.296-94.272-153.344-146.432l-119.424-25.28a64 64 0 0 1-49.6-74.624l5.12-26.816a64 64 0 0 1 87.744-46.976l104.256 44.032 193.664-48.32c47.936-17.088 47.936 89.088 30.4 177.984-17.6 88.96-57.472 165.504-98.816 146.368z"  horiz-adv-x="1024" />
      
      <glyph glyph-name="Gildata-zm-macropublicopinion" unicode="&#58956;" d="M832 832a128 128 0 0 0 128-128v-519.04a128 128 0 0 0-128-128h-87.488l-47.424-128-175.424 128H192a128 128 0 0 0-128 128V704A128 128 0 0 0 192 832h640zM678.848 63.936000000000035h-58.24l45.824-33.408 12.416 33.408zM832 768H192a64 64 0 0 1-63.552-56.512L128 704v-519.04a64 64 0 0 1 56.512-63.616l7.488-0.384h69.504A318.528 318.528 0 0 0 192 320a320 320 0 0 0 616.256 121.216c3.2-4.16 5.376-9.024 6.208-14.208l0.256-3.392v0.32c11.2-32.64 17.28-67.584 17.28-104a318.528 318.528 0 0 0-69.504-199.168L832 120.96000000000004a64 64 0 0 1 63.552 56.576l0.448 7.424V704a64 64 0 0 1-56.512 63.552L832 768zM512 576c-42.688 0-82.944-10.432-118.336-28.928l2.816-51.712 67.712-20.224a32 32 0 0 0 14.528-9.152l3.456-4.608 2.624-5.248 40.576-103.68a32 32 0 0 0-4.736-31.552l-3.904-4.16-85.44-75.136a32 32 0 0 0-19.584-7.936l-5.44 0.192-52.096 6.4-12.16-69.76a31.616 31.616 0 0 0-18.432-23.616c2.56-2.944 5.184-5.76 7.936-8.448l11.328-10.496h338.24l7.424 6.656c14.592 13.888 27.52 29.44 38.4 46.272l7.872 12.864a254.378 254.378 0 0 1 31.232 94.208L695.808 288a32 32 0 0 0-23.552 10.368l-3.264 4.288-65.92 101.824a32 32 0 0 0-0.832 33.28l3.456 4.928L671.808 520A254.912 254.912 0 0 1 512 576z m-179.264-88.064l-4.672-5.696c-23.552-29.056-38.016-54.208-43.52-75.008-7.168-27.2-11.456-64.384-12.736-111.36l-0.32-18.112v-24.832l17.28-15.168 7.68 43.456a32 32 0 0 0 24.448 25.664l5.376 0.768 5.568-0.192 67.904-8.32 57.792 50.88-26.688 68.288-74.24 22.208a32 32 0 0 0-20.224 17.92l-1.792 5.376-0.768 5.632-1.088 18.496z m373.312-26.24l-36.288-42.432L713.28 352h37.568v57.984l-44.8 51.712z"  horiz-adv-x="1024" />
      
      <glyph glyph-name="Gildata-zm-markettips2" unicode="&#58957;" d="M832 832a128 128 0 0 0 128-128v-519.296a128 128 0 0 0-128-128h-87.488l-47.424-128-175.424 128H192a128 128 0 0 0-128 128V704A128 128 0 0 0 192 832h640z m0-64H192a64 64 0 0 1-63.552-56.512L128 704v-519.296a64 64 0 0 1 56.512-63.552l7.488-0.448h350.528l123.904-90.368 33.536 90.368H832a64 64 0 0 1 63.552 56.576l0.448 7.424V704a64 64 0 0 1-56.512 63.552L832 768zM608 323.13599999999997v-18.752L498.112 192h-30.72c9.216 66.048 16.384 116.864 21.568 152.576l28.736 183.936L416 511.488V536.3199999999999l163.968 52.736a5480.96 5480.96 0 0 1-10.88-73.984l-3.456-25.472a6096.64 6096.64 0 0 0-4.288-30.848l-16-108.8L533.12 272 608 323.13599999999997zM554.496 639.04c17.664 0 32 14.592 32 32.512a32.256 32.256 0 0 1-32 32.448c-17.664 0-32-14.528-32-32.448s14.336-32.512 32-32.512z"  horiz-adv-x="1024" />
      
      <glyph glyph-name="Gildata-zm-modelanalysis" unicode="&#58958;" d="M576 832a64 64 0 0 0 64-64v-128a64 64 0 0 0-64-64h-32v-128h32a64 64 0 0 0 64-64v-32h192a32 32 0 0 0 31.488-26.24L864 320v-128h32a64 64 0 0 0 64-64v-128a64 64 0 0 0-64-64H768a64 64 0 0 0-64 64V128a64 64 0 0 0 64 64h32v96H640v-32a64 64 0 0 0-64-64H448a64 64 0 0 0-64 64v32H224v-96h32a64 64 0 0 0 64-64v-128a64 64 0 0 0-64-64H128a64 64 0 0 0-64 64V128a64 64 0 0 0 64 64h32V320a32 32 0 0 0 32 32h192v32a64 64 0 0 0 64 64h32V576h-32a64 64 0 0 0-64 64V768a64 64 0 0 0 64 64h128z"  horiz-adv-x="1024" />
      
      <glyph glyph-name="Gildata-zm-judicialproceedings" unicode="&#58959;" d="M539.52 788.288l9.408-6.208 8.32-6.336 324.928-262.912a160 160 0 0 0 32.064-213.696l-6.592-9.088-140.544-180.032a160 160 0 0 0-215.552-34.24l-9.28 6.784-186.24 151.936-1.28-2.048-240.256-289.344a32 32 0 0 0-52.48 36.096l3.2 4.736 240.32 289.344 1.28 1.472-94.72 77.44a160 160 0 0 0-35.648 206.848l6.272 9.6 6.464 8.576 0.512 0.384L332.8 752.64a160 160 0 0 0 206.72 35.648zM944.384-1.6000000000000227a32 32 0 0 0 5.76-63.488l-5.76-0.512h-456.96a32 32 0 0 0-5.76 63.488l5.76 0.512h456.96z m-555.52 720.96l-6.528-7.296L236.928 534.4l-2.56-3.456a95.872 95.872 0 0 1 5.184-116.672l6.336-6.72 6.528-5.888 329.472-268.928a96 96 0 0 1 128.32 9.152l6.4 7.424 140.544 180.032a96 96 0 0 1-8 127.232l-7.232 6.4-324.864 262.976a96 96 0 0 1-128.128-6.592z m364.8-265.728a32 32 0 0 0 6.592-40.448l-3.328-4.672-142.272-164.48a32 32 0 0 0-51.84 37.12l3.392 4.736 142.272 164.48a32 32 0 0 0 45.184 3.2z"  horiz-adv-x="1024" />
      
      <glyph glyph-name="Gildata-zm-latestpublicopinion" unicode="&#58960;" d="M832 832a128 128 0 0 0 128-128v-519.296a128 128 0 0 0-128-128h-87.488l-47.424-128-175.424 128H192a128 128 0 0 0-128 128V704A128 128 0 0 0 192 832h640z m0-64H192a64 64 0 0 1-63.552-56.512L128 704v-519.296a64 64 0 0 1 56.512-63.552l7.488-0.448h350.528l123.904-90.368 33.536 90.368H832a64 64 0 0 1 63.552 56.576l0.448 7.424V704a64 64 0 0 1-56.512 63.552L832 768zM312.896 417.408l-80 124.416a46.592 46.592 0 0 1-39.168 21.376 25.408 25.408 0 0 1-25.408-25.408v-168a24.192 24.192 0 0 1 48.32 0V491.648l80.832-125.12a45.824 45.824 0 0 1 38.464-20.928 24.96 24.96 0 0 1 24.96 24.96V539.2a24 24 0 0 1-48 0v-121.792z m125.248 21.76h92.544a18.816 18.816 0 0 1 0 37.568h-92.544v47.36h101.76a19.52 19.52 0 0 1 0 39.104H420.48a32 32 0 0 1-32-32v-153.6a32 32 0 0 1 32-32h121.088a20.032 20.032 0 1 1 0 40H438.144v53.504z m379.968 100.16L786.368 413.44 752.96 540.48a30.464 30.464 0 0 1-29.44 22.72 30.72 30.72 0 0 1-29.696-22.72l-33.856-125.184-30.4 123.52A32.064 32.064 0 0 1 598.4 563.2a19.072 19.072 0 0 1-18.368-24.192l46.912-168.96A33.472 33.472 0 0 1 659.2 345.6a32.832 32.832 0 0 1 31.808 24.64l32 123.904 32.64-124.416c3.776-14.208 16.64-24.128 31.36-24.128 14.72 0 27.712 9.792 31.68 24l48 169.92a18.624 18.624 0 0 1-17.92 23.68 31.616 31.616 0 0 1-30.72-23.872z"  horiz-adv-x="1024" />
      
      <glyph glyph-name="Gildata-zm-judgmentdocuments" unicode="&#58961;" d="M768 832a128 128 0 0 0 128-128v-561.024L696-64H256a128 128 0 0 0-128 128V704A128 128 0 0 0 256 832h512z m7.488-64.448L768 768H256a64 64 0 0 1-63.552-56.512L192 704v-640a64 64 0 0 1 56.512-63.552L256 0h412.8L832 168.89599999999996V704a64 64 0 0 1-49.28 62.336l-7.232 1.28zM847.872 191.61599999999999a6.4 6.4 0 0 0 4.608-10.816l-85.76-88.96L704 4.480000000000018v22.4l62.72 65.024 25.6 35.712H704V26.879999999999995l-52.864-54.848a6.4 6.4 0 0 0-11.008 4.48V191.67999999999995h207.744zM531.2 499.008l51.328-51.328a32 32 0 0 0 5.824-37.248L544 323.84000000000003a128 128 0 0 0-200.96-155.2 128 128 0 0 0-7.488 172.8l7.488 8.192L486.016 498.24a32 32 0 0 0 45.248 0.832z m-21.76-68.672L390.08 306.24l-5.696-6.08a64 64 0 1 1 107.776-15.68l-3.52 6.976-17.792 30.272 49.92 97.216-11.456 11.392zM710.72 450.048a32 32 0 0 0 0-64h-64a32 32 0 1 0 0 64h64z m-13.312 167.808a32 32 0 0 0 0-45.312l-45.248-45.248a32 32 0 0 0-45.248 45.248l45.248 45.312a32 32 0 0 0 45.248 0z m-199.68 45.184a32 32 0 0 0 32-32v-64a32 32 0 1 0-64 0v64a32 32 0 0 0 32 32z"  horiz-adv-x="1024" />
      
      <glyph glyph-name="Gildata-zm-judicial" unicode="&#58962;" d="M768 832c128-160.448 192-280.448 192-360 0-119.296-85.952-216-192-216s-192 96.704-192 216c0 68.544 47.552 167.168 142.72 295.936L544 768v-768h259.584c15.68 0 28.416-12.736 28.416-28.416v-7.168A28.416 28.416 0 0 0 803.584-64H220.416A28.416 28.416 0 0 0 192-35.584v7.168c0 15.68 12.736 28.416 28.416 28.416H480V768l-174.72-0.064C400.448 639.168 448 540.544 448 472c0-119.296-85.952-216-192-216S64 352.704 64 472c0 76.352 59.008 190.016 176.96 340.928L256 832h512zM323.584 512H188.416A28.416 28.416 0 0 1 160 483.584v-7.168c0-15.68 12.736-28.416 28.416-28.416h135.168A28.416 28.416 0 0 1 352 476.416v7.168A28.416 28.416 0 0 1 323.584 512z m512 0H700.416A28.416 28.416 0 0 1 672 483.584v-7.168c0-15.68 12.736-28.416 28.416-28.416h135.168A28.416 28.416 0 0 1 864 476.416v7.168A28.416 28.416 0 0 1 835.584 512z"  horiz-adv-x="1024" />
      
      <glyph glyph-name="Gildata-zm-marketopinion" unicode="&#58963;" d="M832 832a128 128 0 0 0 128-128v-519.04a128 128 0 0 0-128-128h-87.488l-47.424-128-175.424 128H192a128 128 0 0 0-128 128V704A128 128 0 0 0 192 832h640z m0-64H192a64 64 0 0 1-63.552-56.512L128 704v-519.04a64 64 0 0 1 56.512-63.616l7.488-0.384h350.528l123.904-90.368 33.536 90.368H832a64 64 0 0 1 63.552 56.576l0.448 7.424V704a64 64 0 0 1-56.512 63.552L832 768zM551.168 336.32000000000005l-92.16 92.16a32 32 0 0 1-45.248 0l-82.176-82.24a32.32 32.32 0 0 0-45.696 45.696L413.632 520a32 32 0 0 0 45.312 0l92.16-92.096a32 32 0 0 1 45.248 0l93.12 93.12a32.32 32.32 0 0 0 45.76 0 32.512 32.512 0 0 0-0.064-45.952L596.416 336.32000000000005a32 32 0 0 0-45.248 0z"  horiz-adv-x="1024" />
      
      <glyph glyph-name="Gildata-zm-judicialoverview" unicode="&#58964;" d="M768 832c132.736-142.656 199.104-249.28 199.104-320 0-106.048-89.152-192-199.104-192-109.952 0-199.104 85.952-199.104 192 0 59.648 47.296 145.024 141.888 256H544v-768h231.104c15.744 0 28.48-12.736 28.48-28.416v-7.168A28.416 28.416 0 0 0 775.104-64H256a28.416 28.416 0 0 0-28.416 28.416v7.168C227.584-12.73599999999999 240.32 0 256 0h224V768H313.216C407.808 656.96 455.04 571.5840000000001 455.04 512c0-106.048-89.152-192-199.104-192-109.888 0-199.04 85.952-199.04 192 0 70.72 66.368 177.344 199.104 320h512z m-512.064-95.744l-6.912-8.128C163.136 627.648 120.896 553.152 120.896 512c0-70.144 59.968-128 135.104-128 75.136 0 135.104 57.856 135.104 128 0 41.152-42.24 115.648-128.128 216.128L256 736.256z m512.064 0l-7.04-8.128c-85.76-100.48-128-174.976-128-216.128 0-70.144 59.968-128 135.104-128 75.136 0 135.104 57.856 135.104 128 0 41.152-42.24 115.648-128.128 216.128l-7.04 8.128zM320 544a32 32 0 0 0 0-64H192a32 32 0 0 0 0 64h128z m512 0a32 32 0 1 0 0-64H704a32 32 0 1 0 0 64h128z"  horiz-adv-x="1024" />
      
      <glyph glyph-name="Gildata-zm-judicialauction" unicode="&#58965;" d="M896 832v-895.68H256a128 128 0 0 0-128 128V704A128 128 0 0 0 256 832h640z m-64-831.68V768H256a64 64 0 0 1-63.552-56.512L192 704v-639.68a64 64 0 0 1 56.512-63.616l7.488-0.384h576zM896 832v-256H256a128 128 0 1 0 0 256h640z m-64-192V768H256a64 64 0 0 1-63.552-56.512L192 704a64 64 0 0 1 56.512-63.552L256 640h576zM341.76 367.03999999999996a96 96 0 0 1 135.808-135.744l90.496 90.496a96 96 0 1 1-135.68 135.744L341.76 367.03999999999996z m45.312-45.248l90.496 90.496a32 32 0 1 0 45.248-45.248l-90.496-90.496a32 32 0 1 0-45.248 45.248zM514.176 311.424a30.016 30.016 0 0 1-0.576-41.856l105.216-110.912a28.48 28.48 0 0 1 40.832-0.512c11.52 11.52 11.776 30.08 0.576 41.856L554.88 310.91200000000003a28.48 28.48 0 0 1-40.768 0.512zM379.968 165.952h128a32 32 0 1 0 0-64h-128a32 32 0 1 0 0 64z"  horiz-adv-x="1024" />
      
      <glyph glyph-name="Gildata-zm-markettips3" unicode="&#58966;" d="M832 832a128 128 0 0 0 128-128v-640a128 128 0 0 0-128-128H192A128 128 0 0 0 64 64V704A128 128 0 0 0 192 832h640z m0-64H192a64 64 0 0 1-63.552-56.512L128 704v-640a64 64 0 0 1 56.512-63.552L192 0h640a64 64 0 0 1 63.552 56.512L896 64V704a64 64 0 0 1-56.512 63.552L832 768z m-208-89.6a25.024 25.024 0 0 0 33.664-8.32l67.712-106.688 5.76-0.256a96 96 0 0 0 85.76-108.672l-37.44-272a96 96 0 0 0-95.104-82.88H339.648a96 96 0 0 0-95.104 82.88L207.04 454.4a96 96 0 0 0 91.584 109.056l67.712 106.624a25.024 25.024 0 0 0 43.328-24.96l-42.752-81.6h290.112l-42.688 81.6a25.024 25.024 0 0 0 5.632 30.4z m97.856-178.816H302.08a32 32 0 0 1-32-30.592l0.32-5.76 37.504-272a32 32 0 0 1 25.856-27.136l5.824-0.512h344.704a32 32 0 0 1 30.336 21.888l1.344 5.76 37.504 272 0.32 4.352a32 32 0 0 1-32 32zM512 256a32 32 0 1 0 0-64 32 32 0 0 0 0 64z m0 192c16 0 28.992-12.992 28.992-28.992l-0.128-2.88-11.136-113.792a17.536 17.536 0 0 0-35.008 0L483.2 416.192A28.928 28.928 0 0 0 512 448z"  horiz-adv-x="1024" />
      
      <glyph glyph-name="Gildata-zm-mainbodyratingdowngrade" unicode="&#58967;" d="M864 860.032c13.76 0 25.152-9.92 27.52-23.04l0.512-4.992v-352a27.968 27.968 0 0 0-55.552-5.056l-0.512 5.056V832c0 15.488 12.544 28.032 28.032 28.032z m16.192-695.104H143.744a27.968 27.968 0 0 1-25.024-15.488L42.496-3.008000000000038a61.44 61.44 0 0 1 55.04-88.96h828.992a61.44 61.44 0 0 1 54.976 88.96L905.216 149.44000000000005a28.032 28.032 0 0 1-25.024 15.488z m-719.168-56h701.824l68.544-136.96a5.504 5.504 0 0 0-4.864-7.936H97.472a5.504 5.504 0 0 0-5.44 5.44l0.32 1.92 68.672 137.536z m551.808 390.784H311.104a28.032 28.032 0 0 1-25.024-15.488L185.6 283.264a28.032 28.032 0 0 1 25.088-40.448h602.56a27.968 27.968 0 0 1 25.024 40.512L737.92 484.224a27.968 27.968 0 0 1-25.024 15.488z m-17.344-56l72.448-144.896h-512l72.448 144.896h367.104zM457.024 825.984l-104-207.872a27.968 27.968 0 0 1 25.024-40.512h267.84a27.968 27.968 0 0 1 25.024 40.512L567.04 825.984a61.44 61.44 0 0 1-109.952 0z m57.408-22.592l1.408-1.024 1.024-1.408 83.712-167.36H423.36l83.712 167.36a5.504 5.504 0 0 0 7.36 2.432zM937.6 592.832a27.968 27.968 0 0 0 47.744-28.8l-2.944-4.8-96-128a28.032 28.032 0 0 0-40.704-4.48l-4.096 4.48-96 128a28.032 28.032 0 0 0 40.96 37.76l3.84-4.16L864 494.72l73.6 98.112z"  horiz-adv-x="1024" />
      
      <glyph glyph-name="Gildata-zm-misappropriationofassetsfinancialab" unicode="&#58968;" d="M875.904 704.448L896 704l0.064-200.576a64 64 0 1 1 0-110.784L896 212.096a128.064 128.064 0 0 0-74.048-115.84l-51.456-24.192-48.32-23.36-45.248-22.4-42.112-21.632L595.776-16l-35.84-19.84c-17.152-9.792-33.152-19.2-47.936-28.224a1771.328 1771.328 0 0 1-31.104 18.048l-34.24 19.072-18.304 9.92-39.04 20.544-42.112 21.568-45.312 22.528-73.984 35.648c-8.576 4.096-17.28 8.256-26.24 12.416a128 128 0 0 0-73.024 105.28l-0.384 10.56 0.32 180.928A61.568 61.568 0 0 1 160 384a64 64 0 1 1-31.488 119.68L128 704c133.568 13.184 203.328 37.312 292.352 81.024l34.496 17.28L512 832c134.72-80.32 256-122.88 363.904-127.552z m-346.688 44.16l-18.88 10.496-55.68-28.544-25.472-12.48-21.952-10.048-22.144-9.472c-55.936-23.168-110.464-38.592-178.176-49.152l-14.464-2.112 0.128-75.52 4.416-1.216A128.064 128.064 0 0 0 287.68 457.6l0.32-9.6a128 128 0 0 0-91.008-122.56l-4.608-1.152-0.256-110.08 0.256-7.936a64 64 0 0 1 36.48-52.608l56.896-27.008 53.12-25.856 49.408-24.704a3576.099 3576.099 0 0 0 45.696-23.616l42.048-22.4 19.584-10.88 16-8.96 1.536 0.896c12.096 7.04 24.768 14.144 38.08 21.44l41.6 22.4c14.464 7.68 29.568 15.488 45.184 23.424l48.768 24.32c8.384 4.16 16.96 8.32 25.728 12.544l54.08 25.792 28.352 13.248c20.096 9.344 33.728 28.224 36.48 49.728l0.576 8.192 0.064 111.936-5.056 1.28a128.064 128.064 0 0 0-90.688 113.024L736 448a128 128 0 0 0 91.008 122.56l5.056 1.344-0.064 72-1.6 0.128c-93.568 11.328-193.92 46.336-301.184 104.512zM512 640c106.048 0 192-57.28 192-128s-85.952-128-192-128-192 57.28-192 128 85.952 128 192 128z m0-64c-74.88 0-128-35.392-128-64 0-28.608 53.12-64 128-64s128 35.392 128 64c0 28.608-53.12 64-128 64zM378.688 384c0-43.904 47.616-69.312 133.312-69.312 81.152 0 128.192 22.784 132.928 62.528l0.384 6.784h53.376c0-82.496-75.52-122.688-186.688-122.688-106.752 0-180.544 37.12-186.304 113.024l-0.384 9.664h53.376z m0-128c0-43.904 47.616-69.312 133.312-69.312 81.152 0 128.192 22.784 132.928 62.528l0.384 6.784h53.376c0-82.496-75.52-122.688-186.688-122.688-106.752 0-180.544 37.12-186.304 113.024l-0.384 9.664h53.376z"  horiz-adv-x="1024" />
      
      <glyph glyph-name="Gildata-zm-negativepublicopinion" unicode="&#58969;" d="M512.448 864l-15.168-0.256c-200.064-7.168-364.608-156.288-382.72-348.928l-1.408-442.048 5.632 0.256c-47.68 0-86.848-37.504-86.848-84.48 0-47.04 39.168-84.544 86.848-84.544h786.304c47.68 0 86.848 37.504 86.848 84.48l-0.256 8.192c-3.456 40.256-36.48 72.512-77.76 76.352l-2.752 0.192-0.832 438.656C891.648 712 719.168 864 512.448 864z m0-64c174.08 0 318.656-127.36 334.08-291.2l0.832-499.328h58.24c12.736 0 22.592-9.6 22.4-20.48 0-11.52-9.92-20.992-22.848-20.992H118.848C105.92-32 96-22.52800000000002 96-11.519999999999982c0 11.072 9.92 20.48 22.848 20.48h58.24l1.408 502.784C193.792 672.96 338.176 800 512.448 800zM620.928 601.7280000000001L350.08 400.96l-4.672-4.224a32 32 0 0 1 1.088-44.032l78.4-78.784-131.328-191.872c-20.032-29.312 15.488-64.64 44.672-44.352L646.4 251.39200000000005l4.48 3.712a32 32 0 0 1 0 45.12l-80.448 80.768 97.6 179.712c16.384 30.08-19.648 61.44-47.168 40.96zM542.912 464.32l-40-73.792-2.368-5.504a32 32 0 0 1 7.808-32.32l70.208-70.528-134.016-92.864 48.192 70.272 2.816 4.928a32 32 0 0 1-6.528 35.712l-71.104 71.424 124.992 92.672z"  horiz-adv-x="1024" />
      
      <glyph glyph-name="Gildata-zm-novotemodel" unicode="&#58970;" d="M638.848 795.712a32 32 0 0 0-32-55.424L496 804.288a32 32 0 1 0 32 55.424l110.848-64z m221.696-128a32 32 0 1 0-32-55.424l-110.848 64a32 32 0 1 0 32 55.424l110.848-64zM931.968 416a32 32 0 1 0-64 0V544a32 32 0 0 0 64 0v-128z m0-256a32 32 0 1 0-64 0V288a32 32 0 0 0 64 0v-128zM694.272 4.288000000000011a32 32 0 0 0-32 55.424l110.848 64a32 32 0 0 0 32-55.424l-110.848-64z m-253.696-64a32 32 0 1 0 32 55.424l55.424-32h-32l55.424 32a32 32 0 1 0 32-55.424l-55.424-32a32 32 0 0 0-32 0l-55.424 32z m-221.696 128a32 32 0 0 0 32 55.424l110.848-64a32 32 0 0 0-32-55.424l-110.848 64zM92.032 288a32 32 0 0 0 64 0v-128a32 32 0 1 0-64 0V288z m0 256a32 32 0 0 0 64 0v-128a32 32 0 1 0-64 0V544z m182.272 187.712a32 32 0 1 0 32-55.424l-110.848-64a32 32 0 1 0-32 55.424l110.848 64zM496 859.712a32 32 0 0 0 32-55.424l-110.848-64a32 32 0 1 0-32 55.424l110.848 64zM533.76 683.2l257.472-145.792a32 32 0 0 0 16.256-27.84v-252.224a32 32 0 0 0-16.384-27.904L533.568 85.31200000000001a32 32 0 0 0-31.232 0L244.864 229.44000000000005a32 32 0 0 0-16.384 27.904V509.568a32 32 0 0 0 16.256 27.84L502.208 683.2a32 32 0 0 0 31.552 0zM292.48 440.192v-155.84a32 32 0 0 1 16.896-28.16L486.4 161.60000000000002V318.65599999999995a64.256 64.256 0 0 0-26.496 29.44l-167.424 92.16z m448 9.472l-159.168-87.488c-3.52-18.56-15.04-34.304-30.848-43.52l-0.064-156.224 173.312 93.76a32 32 0 0 1 16.256 22.4l0.512 5.76V449.6z m-207.36 156.8a32 32 0 0 1-30.336 0.128L311.616 504.32l160.128-86.4a63.808 63.808 0 0 0 85.44 7.104l155.648 84.032zM832 608a64 64 0 1 0 128 0 64 64 0 0 0-128 0z m-768 0a64 64 0 1 0 128 0 64 64 0 0 0-128 0z m448-569.6a64 64 0 1 0 0-128 64 64 0 0 0 0 128z"  horiz-adv-x="1024" />
      
      <glyph glyph-name="Gildata-zm-overallfinancialanomaly" unicode="&#58971;" d="M96 832a32 32 0 0 0 32-32v-765.568C128 15.423999999999978 143.424 0 162.432 0H928a32 32 0 1 0 0-64H167.36A103.36 103.36 0 0 0 64 39.360000000000014V800a32 32 0 0 0 32 32zM368 672a48 48 0 1 1 0 96 48 48 0 0 1 0-96z m192 0a48 48 0 1 1 0 96 48 48 0 0 1 0-96z m192-64a48 48 0 1 1 0 96 48 48 0 0 1 0-96zM193.92 402.048c89.664 131.456 209.28 163.904 347.52 94.656l13.952-7.296c119.04-64.96 213.12-64.96 288.32-3.328a32 32 0 1 0 40.576-49.536c-93.824-76.8-210.368-79.68-344.064-11.52L524.8 433.28c-115.2 62.848-203.776 41.408-278.016-67.264a32 32 0 1 0-52.864 36.096zM560 160a48 48 0 1 1 0 96 48 48 0 0 1 0-96z m256-64a48 48 0 1 1 0 96 48 48 0 0 1 0-96z"  horiz-adv-x="1024" />
      
      <glyph glyph-name="Gildata-zm-limithighconsumption" unicode="&#58972;" d="M512 832a448 448 0 1 0 0-896 448 448 0 0 0 0 896z m0-64a384 384 0 1 1 0-768 384 384 0 0 1 0 768zM512 736a352 352 0 1 0 0-704 352 352 0 0 0 0 704z m0-64a288 288 0 1 1 0-576 288 288 0 0 1 0 576zM384 416a32 32 0 0 0-5.76 63.488L384 480h50.048l-40.832 41.6a32 32 0 0 0 41.216 48.576l4.352-3.712L512 492.032l73.216 74.432a32 32 0 0 0 49.28-40.448l-3.712-4.48L589.888 480H640a32 32 0 0 0 5.76-63.488L640 416h-96v-64h64a32 32 0 0 0 5.76-63.488L608 288h-64v-64a32 32 0 0 0-63.488-5.76L480 224v64h-64a32 32 0 0 0-5.76 63.488L416 352h64v64h-96zM770.319 610.319q22.628-22.627 0-45.254L363.026 157.76999999999998q-22.627-22.627-45.255 0-22.627 22.628 0 45.255l407.294 407.293q22.627 22.628 45.254 0z"  horiz-adv-x="1024" />
      
      <glyph glyph-name="Gildata-zm-marketpanorama" unicode="&#58973;" d="M864 832a96 96 0 0 0 96-96v-576a96 96 0 0 0-96-96H160a96 96 0 0 0-96 96V736a96 96 0 0 0 96 96h704z m0-64H160a32 32 0 0 1-31.488-26.24L128 736v-576a32 32 0 0 1 26.24-31.488L160 128h704a32 32 0 0 1 31.488 26.24L896 160V736a32 32 0 0 1-26.24 31.488L864 768z m-544-32c44.992 0 85.632-18.56 114.688-48.448A272 272 0 0 0 799.104 454.08a120 120 0 0 0-84.8-220.16 272 272 0 0 0-458.048 184.896L256 429.312A160 160 0 0 0 320 736z m208-96a209.226 209.226 0 0 1-58.048-8.192A160 160 0 0 0 320 416c8.768-107.392 98.56-192 208-192 45.888 0 89.344 14.912 124.8 41.6A120 120 0 0 0 736 472l-3.84-0.128A208.064 208.064 0 0 1 528 640z m208-216a72 72 0 1 1 0-144 72 72 0 0 1 0 144zM320 672a96 96 0 1 1 0-192 96 96 0 0 1 0 192z m416-672a32 32 0 0 0 5.76-63.488L736-64H288a32 32 0 0 0-5.76 63.488L288 0h448z"  horiz-adv-x="1024" />
      
      <glyph glyph-name="Gildata-zm-persontobeexecuted" unicode="&#58974;" d="M704 160a32 32 0 1 0 0-64 32 32 0 0 0 0 64zM704 192c21.312 90.624 32 141.568 32 152.896 0 16.96-5.632 39.104-32 39.104-26.368 0-32-22.144-32-39.104 0-11.328 10.688-62.272 32-152.896zM761.216 483.392l128-64A128 128 0 0 0 960 304.832v-40.768l-1.664-9.28A431.424 431.424 0 0 0 719.808-58.24000000000001L704-65.40800000000002l-2.56 1.024A431.296 431.296 0 0 0 451.52 234.88L448 251.712v53.12a128 128 0 0 0 70.784 114.56l128 64a128 128 0 0 0 114.432 0z m-28.608-57.28a64 64 0 0 1-49.28 3.328l-7.936-3.328-128-64a64 64 0 0 1-34.88-49.28L512 304.96000000000004v-46.72l1.92-8.96a367.296 367.296 0 0 1 184.256-240.96l5.632-2.88 2.752 1.28a367.424 367.424 0 0 1 185.6 243.648L896 270.08000000000004v34.88a64 64 0 0 1-28.48 53.248l-6.912 3.968-128 64zM384 832a192 192 0 1 0 0-384 192 192 0 0 0 0 384z m0-64a128 128 0 1 1 0-256 128 128 0 0 1 0 256zM384 462.08c37.632 0 84.48-14.08 141.824-41.6a32 32 0 0 0-27.648-57.728C448.64 386.496 410.24 398.08 384 398.08a193.28 193.28 0 0 1-192.896-181.888l-0.32-11.328v-22.656c0-25.6 19.008-46.72 43.712-50.112l6.848-0.448 296.32-0.192a32 32 0 0 0 5.76-63.488l-5.76-0.512-296.32 0.192A114.56 114.56 0 0 0 127.104 172.79999999999995l-0.384 9.408v22.656c0 142.016 115.2 257.216 257.28 257.216z"  horiz-adv-x="1024" />
      
      <glyph glyph-name="Gildata-zm-publicopinion" unicode="&#58975;" d="M754.88 817.152l1.536-5.568L774.08 711.36l57.92-0.064a128 128 0 0 0 128-128V64a128 128 0 0 0-128-128H192A128 128 0 0 0 64 64V583.296a128 128 0 0 0 128 128h57.856l17.728 100.288a32 32 0 1 0 63.04-11.072L314.88 711.36h394.176l-15.68 89.152a32 32 0 0 0 20.352 35.52l5.632 1.536a32 32 0 0 0 35.52-20.416zM336.96 435.2a24 24 0 0 1-24.064-24v-121.792l-80 124.416a46.592 46.592 0 0 1-39.168 21.376 25.408 25.408 0 0 1-25.408-25.408v-168a24.192 24.192 0 0 1 48.32 0V363.648l80.832-125.12a45.824 45.824 0 0 1 38.464-20.928 24.96 24.96 0 0 1 24.96 24.96V411.2a24 24 0 0 1-24 24z m202.88 0H420.544a32 32 0 0 1-32-32v-153.6a32 32 0 0 1 32-32h121.088a20.032 20.032 0 0 1 0 40H438.144v53.504h92.544a18.816 18.816 0 0 1 0 37.632h-92.544v47.36h101.76a19.52 19.52 0 0 1 0 39.104z m308.864 0a31.616 31.616 0 0 1-30.592-23.872L786.368 285.44000000000005 752.96 412.48a30.464 30.464 0 0 1-29.44 22.72 30.72 30.72 0 0 1-29.696-22.72l-33.856-125.184-30.4 123.52A32.064 32.064 0 0 1 598.4 435.2a19.072 19.072 0 0 1-18.368-24.192l46.912-168.96A33.472 33.472 0 0 1 659.2 217.60000000000002a32.832 32.832 0 0 1 31.808 24.64l32 123.904 32.64-124.416c3.776-14.208 16.64-24.128 31.36-24.128 14.72 0 27.712 9.792 31.68 24l48 169.92a18.624 18.624 0 0 1-17.92 23.68z"  horiz-adv-x="1024" />
      
      <glyph glyph-name="Gildata-zm-regionaleconomy" unicode="&#58976;" d="M362.24 182.27200000000005l5.76-0.512a32 32 0 0 0 25.728-25.728l0.512-5.76-0.512-5.76A32 32 0 0 0 368 118.78399999999999l-5.76-0.512-93.44 0.128 243.392-120.896 245.568 120.96-92.48-0.128a32 32 0 0 0-31.488 26.24l-0.512 5.76a32 32 0 0 0 26.24 31.488l5.76 0.512h216.576a32 32 0 0 0 31.36-38.208l-29.44-148.864a32 32 0 0 0-62.848 12.416l15.36 77.952-309.824-152.448a32 32 0 0 0-9.28-2.944l-4.864-0.32a33.28 33.28 0 0 0-10.048 1.472l-4.544 1.856-306.624 152.32 15.36-77.888a32 32 0 0 0-19.584-35.968l-5.568-1.6a32 32 0 0 0-35.968 19.648l-1.664 5.504-29.44 148.864a32 32 0 0 0 25.984 37.76l5.376 0.448h216.64zM512 832c141.44 0 256-111.424 256-248.896 0-51.072-21.504-112.896-64.576-185.472l238.208-114.24a32 32 0 0 0-22.272-59.712l-5.44 1.984L668.608 343.36C628.48 285.05600000000004 576.32 220.67200000000003 512 150.27200000000005c-64.64 71.808-117.12 137.088-157.248 195.84L111.168 225.91999999999996a32 32 0 0 0-33.28 54.4l4.928 3.008 237.248 117.184C277.376 472.64 256 533.568 256 583.104 256 720.64 370.56 832 512 832z m0-64c-106.432 0-192-83.2-192-184.896 0-67.52 58.624-176 177.728-318.784l14.528-17.28 14.272 16.64C640.768 399.232 699.2 504.64 703.744 574.528l0.256 8.576C704 684.864 618.432 768 512 768z m-28.544-73.344l31.936-32 32 32a32 32 0 0 0 40.832 3.648l4.48-3.648a32 32 0 0 0 3.712-40.832l-3.712-4.48-34.56-34.432H608a32 32 0 1 0 0-64h-64v-32h38.4a32 32 0 1 0 0-64H544v-64a32 32 0 0 0-64 0v64h-38.4a32 32 0 0 0 0 64H480v32h-64a32 32 0 0 0 0 64h56.64l-34.496 34.432a32 32 0 1 0 45.312 45.312z"  horiz-adv-x="1024" />
      
      <glyph glyph-name="Gildata-zm-markettips" unicode="&#58977;" d="M512 832a448 448 0 1 0 0-896 448 448 0 0 0 0 896z m0-64a384 384 0 1 1 0-768 384 384 0 0 1 0 768zM654.592 673.984l3.072-3.84 67.648-106.752 5.76-0.256A96 96 0 0 0 816.96 454.4l-37.504-272a96 96 0 0 0-95.104-82.88H339.648a96 96 0 0 0-95.104 82.88l-37.504 272a96 96 0 0 0 91.584 109.056l67.712 106.624a25.024 25.024 0 0 0 43.328-24.96l-42.688-81.6h289.92l-42.496 81.6a25.024 25.024 0 0 0 5.632 30.4L624 678.4a25.024 25.024 0 0 0 30.592-4.416z m67.2-174.4H302.208a32 32 0 0 1-32-30.592l0.32-5.76 37.504-272a32 32 0 0 1 25.856-27.136l5.824-0.512h344.704a32 32 0 0 1 30.336 21.888l1.344 5.76 37.504 272 0.32 4.352a32 32 0 0 1-32 32zM512 256a32 32 0 1 0 0-64 32 32 0 0 0 0 64z m0 192a28.992 28.992 0 0 0 28.864-31.872l-11.136-113.792a17.536 17.536 0 0 0-35.008 0L483.2 416.192a28.928 28.928 0 0 0 25.92 31.68L512 448z"  horiz-adv-x="1024" />
      
      <glyph glyph-name="Gildata-zm-regionalfinancialinstitutions" unicode="&#58978;" d="M803.712 128a128 128 0 0 0 121.472-87.552L928 32a72.96 72.96 0 0 0-69.184-96H165.12A72.96 72.96 0 0 0 96 32l2.816 8.448A128 128 0 0 0 220.288 128h583.424z m0-64H220.288a64 64 0 0 1-57.984-36.864l-2.752-6.912-2.816-8.448a8.96 8.96 0 0 1 5.632-11.328l2.816-0.448H858.88a8.96 8.96 0 0 1 8.96 8.96l-0.512 2.816-2.816 8.448a64 64 0 0 1-53.248 43.328l-7.552 0.448z m-273.6 765.44l334.848-47.872A110.72 110.72 0 0 0 960 672a96 96 0 0 0-96-96H160a96 96 0 0 0-96 96c0 55.04 40.512 101.76 95.04 109.568L493.888 829.44a128 128 0 0 0 36.224 0z m-9.088-63.36a64 64 0 0 1-12.032 0.576l-6.016-0.64-334.912-47.808A46.72 46.72 0 0 1 128 672a32 32 0 0 1 26.24-31.488L160 640h704a32 32 0 0 1 32 32 46.72 46.72 0 0 1-33.344 44.8l-6.72 1.408L520.96 766.08zM192 640.448v-576h-64v576z m128 0v-576h-64v576z m576 0v-576h-64v576z m-128 0v-576h-64v576zM483.456 503.04l31.936-31.936 32 32a32 32 0 0 0 40.832 3.648l4.48-3.648a32 32 0 0 0 3.712-40.832l-3.712-4.48-34.56-34.432H608a32 32 0 1 0 0-64h-64v-32h38.4a32 32 0 1 0 0-64H544v-64a32 32 0 1 0-64 0v64h-38.4a32 32 0 0 0 0 64H480v32h-64a32 32 0 0 0 0 64h56.64l-34.496 34.432a32 32 0 1 0 45.312 45.312z"  horiz-adv-x="1024" />
      
      <glyph glyph-name="Gildata-zm-mycombination" unicode="&#58979;" d="M713.408 839.104a96 96 0 0 0 96-96v-356.288L512 258.94399999999996 208.96 386.816V743.04a96 96 0 0 0 96 96h408.448z m0-64H304.96a32 32 0 0 1-31.488-26.24l-0.512-5.76v-313.856l238.784-100.736 233.6 100.48V743.104a32 32 0 0 1-26.24 31.488l-5.76 0.512zM369.728 668.4159999999999h284.48q28.416 0 28.416-28.416v-7.168q0-28.416-28.416-28.416h-284.48q-28.416 0-28.416 28.416V640q0 28.416 28.416 28.416zM369.792 497.792h170.624q28.48 0 28.48-28.48v-7.04q0-28.48-28.48-28.48H369.792q-28.48 0-28.48 28.48v7.04q0 28.48 28.48 28.48zM159.232 466.432a64 64 0 0 0 24.192-4.8L512 327.10400000000004l322.624 133.952a64 64 0 0 0 88.512-59.136v-377.024a96 96 0 0 0-96-96H191.232a96 96 0 0 0-96 96V402.432a64 64 0 0 0 64 64z m0-64v-377.6a32 32 0 0 1 26.24-31.424l5.76-0.512h635.904a32 32 0 0 1 31.488 26.24l0.512 5.76V401.92l-346.944-144-352.96 144.448z"  horiz-adv-x="1024" />
      
      <glyph glyph-name="Gildata-zm-publicopinionoverview" unicode="&#58980;" d="M832 768a128 128 0 0 0 128-128v-192a64 64 0 0 1 0-128v-192a128 128 0 0 0-128-128H192A128 128 0 0 0 64 128V320a64 64 0 1 1 0 128V640a128 128 0 0 0 128 128h640z m0-64H192a64 64 0 0 1-63.552-56.512L128 640v-145.152l5.696-3.456c32.64-21.184 54.912-56.832 57.984-97.856L192 384c0-44.992-23.232-84.544-58.304-107.392L128 273.28V128a64 64 0 0 1 56.512-63.552L192 64h640a64 64 0 0 1 63.552 56.512L896 128V273.216l-5.696 3.392a127.936 127.936 0 0 0-57.984 97.856L832 384c0 44.992 23.232 84.544 58.304 107.392l5.696 3.456V640a64 64 0 0 1-56.512 63.552L832 704zM752.128 512a32 32 0 0 0 2.112-63.936L526.016 259.712a29.568 29.568 0 0 0-38.656 0.896 32.832 32.832 0 0 0-2.752 2.432l-3.712 4.416-55.808 79.616-106.176-74.432a32 32 0 1 0-36.672 52.48l131.008 91.712a31.872 31.872 0 0 0 15.744 5.696h2.048a32 32 0 0 0 25.152-9.152l3.712-4.416 53.76-76.672L653.632 448H608a32 32 0 0 0 0 64h144.128z"  horiz-adv-x="1024" />
      
      <glyph glyph-name="Gildata-zm-productcatalog" unicode="&#58981;" d="M260.551 355.55600000000004l16.27-54.557c-82.204-24.462-134.599-81.237-134.599-147.342 0-96.882 53.703-162.702 121.06-167.595l8.078-0.284h588.117v-56.89h-588.06c-104.505 0-186.084 94.266-186.084 224.712 0 90.453 65.536 164.92 163.385 198.144l11.89 3.755zM813.17 8.020999999999958a14.222 14.222 0 0 0 16.327 5.405l3.413-1.707 56.89-38.912a14.222 14.222 0 0 0 3.64-19.911l-2.674-2.844-56.889-46.422a14.222 14.222 0 0 0-20.593 19.286l2.616 2.787 42.098 34.418-41.13 28.16a14.222 14.222 0 0 0-5.405 16.327l1.707 3.413zM267.72 580.95L495.501 717.14a56.889 56.889 0 0 0 57.287 0.57l242.745-137.956a56.889 56.889 0 0 0 28.786-49.494V296.62a56.889 56.889 0 0 0-28.558-49.323L553.87 108.14599999999996a56.889 56.889 0 0 0-58.994 1.365L266.24 255.43100000000004a56.889 56.889 0 0 0-26.226 47.957V532.082a56.889 56.889 0 0 0 27.705 48.867z m257.023 87.38l-227.84-136.248v-228.694l228.693-145.976 241.892 139.207V530.26l-242.745 138.07zM761.173 569.116l31.744-47.217-236.089-158.436 0.057-225.45h-56.889V393.67z"  horiz-adv-x="1024" />
      
      <glyph glyph-name="Gildata-zm-judgment" unicode="&#58982;" d="M736 832a96 96 0 0 0 95.552-86.784L832 736v-65.088a32 32 0 0 0-63.488-5.76l-0.512 5.76V736a32 32 0 0 1-26.24 31.488L736 768H160a32 32 0 0 1-31.488-26.24L128 736v-704a32 32 0 0 1 26.24-31.488L160 0h256.96a32 32 0 0 0 5.76-63.488l-5.76-0.512H160a96 96 0 0 0-95.552 86.784L64 32V736a96 96 0 0 0 86.784 95.552L160 832h576zM832 576a64 64 0 0 0 64-64v-128a64 64 0 0 0-64-64H640a64 64 0 0 0-64 64V512a64 64 0 0 0 64 64h192z m0-64H640v-128h192V512zM704 384v-192h-64V384z m128 0v-192h-64V384z m64-192a64 64 0 0 0 64-64v-192H512V128a64 64 0 0 0 64 64h320z m0-64H576v-128h320V128zM512 576v-64H256v64z m0-160v-64H256v64z m0-160v-64H256v64z"  horiz-adv-x="1024" />
      
      <glyph glyph-name="Gildata-zm-operationalabnormalwarning" unicode="&#58983;" d="M832 768a128 128 0 0 0 128-128v-384a128 128 0 0 0-128-128H192A128 128 0 0 0 64 256V640a128 128 0 0 0 128 128h640z m0-64H192a64 64 0 0 1-63.552-56.512L128 640v-384a64 64 0 0 1 56.512-63.552L192 192h640a64 64 0 0 1 63.552 56.512L896 256V640a64 64 0 0 1-56.512 63.552L832 704zM552.576 645.12a38.4 38.4 0 0 0 67.072 8.384l2.944-4.8 136.64-268.544h75.136a32 32 0 0 0 31.488-26.304l0.512-5.76a32 32 0 0 0-26.24-31.488l-5.76-0.512h-94.72a32 32 0 0 0-25.344 12.48l-3.2 4.992-119.616 235.136-116.992-302.016a38.4 38.4 0 0 0-15.36-18.56l-5.44-2.88a38.4 38.4 0 0 0-47.488 14.72l-2.88 5.568-60.864 142.976-31.168-72.96a32 32 0 0 0-24-19.008l-5.44-0.448h-93.44a32 32 0 0 0-5.76 63.488l5.76 0.512 72.32 0.064 46.528 108.672a38.4 38.4 0 0 0 44.544 22.144l5.888-1.92a38.4 38.4 0 0 0 17.536-15.104l2.688-5.248 59.648-140.096 115.008 296.576zM798.72 64H225.28A32.64 32.64 0 0 1 192 32c0-17.664 14.912-32 33.28-32h573.44A32.64 32.64 0 0 1 832 32a32.64 32.64 0 0 1-33.28 32z"  horiz-adv-x="1024" />
      
      <glyph glyph-name="Gildata-zm-otherprofitandlossfinancialabnorma" unicode="&#58984;" d="M832 768a64 64 0 0 0 64-64v-237.696H792.704a82.304 82.304 0 1 1 0-109.824L896 356.672V64a64 64 0 0 0-64-64H566.848V130.688a82.304 82.304 0 1 1-115.84 5.952l6.08-5.952V0H192a64 64 0 0 0-64 64V704a64 64 0 0 0 64 64h640z m0-64H192v-640h201.088v43.008l-3.968 5.568a145.792 145.792 0 0 0-22.912 67.2L365.696 192a146.304 146.304 0 1 0 267.968-81.28l-2.816-3.776V64H832V292.60799999999995l-15.552-0.064-3.84-2.816a145.856 145.856 0 0 0-68.672-24.064l-12.48-0.512a146.304 146.304 0 1 0 81.216 267.968l3.712-2.752H832V704z"  horiz-adv-x="1024" />
      
      </font>
</defs>
</svg>
