<?xml version="1.0" encoding="UTF-8"?>
<svg width="42px" height="42px" viewBox="0 0 42 42" version="1.1" xmlns="http://www.w3.org/2000/svg" xmlns:xlink="http://www.w3.org/1999/xlink">
    <title>编组 3</title>
    <g id="页面-1" stroke="none" stroke-width="1" fill="none" fill-rule="evenodd">
        <g id="资源" transform="translate(-336.000000, -368.000000)">
            <g id="编组-2" transform="translate(320.000000, 352.000000)">
                <g id="编组-3" transform="translate(16.000000, 16.000000)">
                    <rect id="矩形备份" fill="#256DFF" x="0" y="0" width="42" height="42" rx="4"></rect>
                    <g id="品牌标识-钉钉" transform="translate(10.000000, 7.000000)" fill="#FFFFFF" fill-rule="nonzero">
                        <path d="M21.9504978,10.4661754 C21.9015367,10.6712318 21.7826309,10.9713144 21.614764,11.333414 L21.6187609,11.333414 L21.5987767,11.3664231 C20.6225507,13.463 18.0715733,17.5741312 18.0715733,17.5741312 C18.0715733,17.5741312 18.0675765,17.5641285 18.0575844,17.5491243 L17.3121755,18.8494821 L20.9053265,18.8494821 L14.0427677,28 L15.6005326,21.7752872 L12.7717754,21.7752872 L13.7539966,17.6591546 C12.9596265,17.8512075 12.0203712,18.1162804 10.9072538,18.4743789 C10.9072538,18.4743789 9.40244688,19.3586222 6.57069211,16.773911 C6.57069211,16.773911 4.6622053,15.0884473 5.76932749,14.6663311 C6.23995434,14.4872818 8.05451562,14.2602194 9.4823835,14.066166 C11.4118537,13.8060944 12.5999117,13.6660559 12.5999117,13.6660559 C12.5999117,13.6660559 6.64962952,13.7560806 5.23874817,13.5330193 C3.82686762,13.3109582 2.03728653,10.9493083 1.65558917,8.87373723 C1.65558917,8.87373723 1.06605659,7.73442373 2.92458302,8.27357208 C4.78310944,8.81372071 12.4740115,10.3741501 12.4740115,10.3741501 C12.4740115,10.3741501 2.4709427,7.29930401 1.80547033,6.54909758 C1.13999797,5.79889115 -0.152976865,2.45397077 0.014890038,0.398405157 C0.014890038,0.398405157 0.087832204,-0.113735763 0.612416274,0.0233019439 C0.612416274,0.0233019439 8.00755286,3.41223444 13.0645433,5.26674473 C18.1215337,7.12125501 22.5180478,8.06551484 21.9504978,10.4661754 Z" id="路径"></path>
                    </g>
                </g>
            </g>
        </g>
    </g>
</svg>