<svg xmlns="http://www.w3.org/2000/svg" xmlns:xlink="http://www.w3.org/1999/xlink" width="32" height="32" viewBox="0 0 32 32">
  <defs>
    <path id="logo32x32-a" d="M17.927675,2.56022125 L27.7497338,7.96235361 L27.7497338,7.96235361 C28.7774178,8.59485861 29.1571361,9.35488462 28.8888889,10.2424316 C28.6206416,11.1299787 28.0024089,11.5276586 27.0341906,11.4354715 L16.9491829,5.88871728 C16.3570349,5.56303584 15.6404645,5.55841896 15.044169,5.87644322 L7.39215686,9.95751634 C6.74042989,10.3051041 6.33333333,10.9835983 6.33333333,11.7222222 L6.33333333,20.2777778 C6.33333333,21.0164017 6.74042989,21.6948959 7.39215686,22.0424837 L15.0730693,26.1389703 C15.6534284,26.4484951 16.3488752,26.4528806 16.9330917,26.1506997 L24.704474,22.1310192 C24.8842333,22.0380402 24.9545827,21.8169422 24.8616038,21.6371829 C24.8259656,21.5682826 24.7693821,21.5124688 24.7,21.4777778 C24.3050419,21.2802987 24.0555556,20.8766214 24.0555556,20.4350448 L24.0555556,18.4685171 C24.0555556,18.1341639 24.2226567,17.8219326 24.5008554,17.6364668 L25.4815545,16.9826674 C25.7931039,16.7749678 26.1945818,16.7587183 26.5218976,16.9405604 L28.3745318,17.9698016 C28.691997,18.1461712 28.8888889,18.4807918 28.8888889,18.8439589 L28.8888889,21.6378128 C28.8888889,23.1244112 28.0644556,24.488383 26.7482245,25.1794044 L17.8593356,29.846071 C16.6951238,30.4572822 15.3048762,30.4572822 14.1406644,29.846071 L5.25177552,25.1794044 C3.93554438,24.488383 3.11111111,23.1244112 3.11111111,21.6378128 L3.11111111,10.9539738 C3.11111111,9.49520885 3.90524308,8.1521163 5.18343611,7.44911014 L14.072325,2.56022125 C15.2726556,1.90003943 16.7273444,1.90003943 17.927675,2.56022125 Z"/>
  </defs>
  <g fill="none" fill-rule="evenodd">
    <path fill="#256DFF" d="M16.4472136,17.0988998 L20.9055728,19.3280794 C21.1525621,19.451574 21.2526742,19.7519105 21.1291796,19.9988998 C21.0807978,20.0956635 21.0023365,20.1741247 20.9055728,20.2225066 L16.4472136,22.4516862 C16.1656861,22.5924499 15.8343139,22.5924499 15.5527864,22.4516862 L11.0944272,20.2225066 C10.8474379,20.0990119 10.7473258,19.7986754 10.8708204,19.5516862 C10.9192022,19.4549225 10.9976635,19.3764612 11.0944272,19.3280794 L15.5527864,17.0988998 C15.8343139,16.958136 16.1656861,16.958136 16.4472136,17.0988998 Z"/>
    <path fill="#EE5640" d="M16.4472136,13.2988998 L20.9055728,15.5280794 C21.1525621,15.651574 21.2526742,15.9519105 21.1291796,16.1988998 C21.0807978,16.2956635 21.0023365,16.3741247 20.9055728,16.4225066 L16.4472136,18.6516862 C16.1656861,18.7924499 15.8343139,18.7924499 15.5527864,18.6516862 L11.0944272,16.4225066 C10.8474379,16.2990119 10.7473258,15.9986754 10.8708204,15.7516862 C10.9192022,15.6549225 10.9976635,15.5764612 11.0944272,15.5280794 L15.5527864,13.2988998 C15.8343139,13.158136 16.1656861,13.158136 16.4472136,13.2988998 Z" opacity=".804"/>
    <path fill="#FFAA0E" d="M16.4472136,9.49889977 L20.9055728,11.7280794 C21.1525621,11.851574 21.2526742,12.1519105 21.1291796,12.3988998 C21.0807978,12.4956635 21.0023365,12.5741247 20.9055728,12.6225066 L16.4472136,14.8516862 C16.1656861,14.9924499 15.8343139,14.9924499 15.5527864,14.8516862 L11.0944272,12.6225066 C10.8474379,12.4990119 10.7473258,12.1986754 10.8708204,11.9516862 C10.9192022,11.8549225 10.9976635,11.7764612 11.0944272,11.7280794 L15.5527864,9.49889977 C15.8343139,9.35813602 16.1656861,9.35813602 16.4472136,9.49889977 Z" opacity=".804"/>
    <use fill="#256DFF" xlink:href="#logo32x32-a"/>
  </g>
</svg>
